<svg width="386" height="483" viewBox="0 0 386 483" fill="none" xmlns="http://www.w3.org/2000/svg">
<rect x="0.5" y="0.5" width="385" height="482" rx="19.5" stroke="#FF0055" stroke-opacity="0.25"/>
<path d="M343 277.44H43V277.59H343V277.44Z" fill="#EBEBEB"/>
<path d="M312.94 287.094H293.068V287.244H312.94V287.094Z" fill="#EBEBEB"/>
<path d="M241.732 288.726H236.518V288.876H241.732V288.726Z" fill="#EBEBEB"/>
<path d="M292.468 281.526H280.954V281.676H292.468V281.526Z" fill="#EBEBEB"/>
<path d="M100.39 282.534H74.4761V282.684H100.39V282.534Z" fill="#EBEBEB"/>
<path d="M109.534 282.534H105.736V282.684H109.534V282.534Z" fill="#EBEBEB"/>
<path d="M178.09 285.066H121.882V285.216H178.09V285.066Z" fill="#EBEBEB"/>
<path d="M185.2 250.68H69.346C68.4384 250.678 67.5686 250.317 66.9274 249.674C66.2862 249.032 65.926 248.162 65.926 247.254V84.396C65.9339 83.4936 66.2975 82.6308 66.9379 81.9949C67.5782 81.3591 68.4436 81.0015 69.346 81H185.2C186.109 81 186.98 81.361 187.623 82.0035C188.265 82.646 188.626 83.5174 188.626 84.426V247.254C188.626 248.163 188.265 249.034 187.623 249.677C186.98 250.319 186.109 250.68 185.2 250.68ZM69.346 81.12C68.4782 81.1216 67.6465 81.4674 67.0334 82.0816C66.4204 82.6958 66.076 83.5282 66.076 84.396V247.254C66.076 248.122 66.4204 248.954 67.0334 249.568C67.6465 250.183 68.4782 250.528 69.346 250.53H185.2C186.068 250.528 186.901 250.183 187.515 249.569C188.129 248.955 188.474 248.122 188.476 247.254V84.396C188.474 83.5276 188.129 82.6953 187.515 82.0813C186.901 81.4672 186.068 81.1216 185.2 81.12H69.346Z" fill="#EBEBEB"/>
<path d="M314.986 250.68H199.126C198.218 250.678 197.347 250.317 196.705 249.675C196.063 249.033 195.702 248.162 195.7 247.254V84.396C195.709 83.4931 196.074 82.6302 196.716 81.9946C197.357 81.3589 198.223 81.0015 199.126 81H314.986C315.887 81.0031 316.751 81.3613 317.39 81.997C318.029 82.6327 318.392 83.4947 318.4 84.396V247.254C318.4 248.161 318.041 249.03 317.401 249.672C316.761 250.314 315.892 250.677 314.986 250.68ZM199.126 81.12C198.258 81.1216 197.425 81.4672 196.811 82.0813C196.197 82.6953 195.852 83.5276 195.85 84.396V247.254C195.852 248.122 196.197 248.955 196.811 249.569C197.425 250.183 198.258 250.528 199.126 250.53H314.986C315.854 250.528 316.687 250.183 317.301 249.569C317.915 248.955 318.26 248.122 318.262 247.254V84.396C318.26 83.5276 317.915 82.6953 317.301 82.0813C316.687 81.4672 315.854 81.1216 314.986 81.12H199.126Z" fill="#EBEBEB"/>
<path d="M75.988 277.434H92.302V233.97H75.988V277.434Z" fill="#E6E6E6"/>
<path d="M79.0839 277.44H75.9819V265.95H82.3299L79.0839 277.44Z" fill="#F0F0F0"/>
<path d="M169.06 277.434H185.374V233.97H169.06V277.434Z" fill="#E6E6E6"/>
<path d="M75.9881 274.302H171.766V233.97H75.9881V274.302Z" fill="#F0F0F0"/>
<path d="M168.664 277.44H171.766V265.95H165.418L168.664 277.44Z" fill="#F0F0F0"/>
<path d="M168.88 269.448H139.888V238.416H168.88V269.448ZM140.488 268.848H168.28V239.016H140.488V268.848Z" fill="#E6E6E6"/>
<path d="M138.4 269.448H109.378V238.416H138.4V269.448ZM110.008 268.848H137.8V239.016H109.978L110.008 268.848Z" fill="#E6E6E6"/>
<path d="M107.86 269.448H78.8679V238.416H107.86V269.448ZM79.4679 268.848H107.26V239.016H79.4679V268.848Z" fill="#E6E6E6"/>
<path d="M205.876 186.996H302.002V105.15L205.876 105.15V186.996Z" fill="#E6E6E6"/>
<path d="M203.716 186.996H301.06V105.15L203.716 105.15V186.996Z" fill="#F5F5F5"/>
<path d="M297.184 183.066V109.074H207.604V183.066H297.184Z" fill="#FAFAFA"/>
<path d="M286.186 183.066L250.93 109.08H238.954L274.21 183.066H286.186Z" fill="white"/>
<path d="M270.814 183.066L235.558 109.08H227.314L262.57 183.066H270.814Z" fill="white"/>
<path d="M240.862 183.072V109.08H236.23V183.072H240.862Z" fill="#E6E6E6"/>
<path d="M271.654 183.072V109.08H267.022V183.072H271.654Z" fill="#E6E6E6"/>
<path d="M240.022 185.562V106.158H234.166V185.562H240.022Z" fill="#F5F5F5"/>
<path d="M270.814 185.562V106.158H264.958V185.562H270.814Z" fill="#F5F5F5"/>
<path d="M208.012 183.072V109.08H207.598V183.072H208.012Z" fill="#E6E6E6"/>
<path d="M202.084 100.098H306.226C306.359 100.1 306.485 100.153 306.578 100.248C306.672 100.342 306.724 100.469 306.724 100.602C306.724 100.734 306.671 100.861 306.578 100.954C306.485 101.048 306.358 101.1 306.226 101.1H202.084C201.952 101.1 201.825 101.048 201.732 100.954C201.638 100.861 201.586 100.734 201.586 100.602C201.586 100.469 201.638 100.342 201.731 100.248C201.825 100.153 201.951 100.1 202.084 100.098Z" fill="#E6E6E6"/>
<path d="M302.002 103.404C302.181 103.402 302.353 103.33 302.48 103.204C302.606 103.077 302.678 102.905 302.68 102.726V101.274C302.678 101.095 302.606 100.924 302.479 100.798C302.352 100.673 302.181 100.602 302.002 100.602C301.823 100.602 301.652 100.673 301.525 100.798C301.398 100.924 301.326 101.095 301.324 101.274V102.726C301.326 102.905 301.397 103.077 301.524 103.204C301.651 103.33 301.823 103.402 302.002 103.404Z" fill="#E6E6E6"/>
<path d="M209.638 103.404C209.817 103.402 209.989 103.33 210.116 103.204C210.242 103.077 210.314 102.905 210.316 102.726V101.274C210.314 101.095 210.242 100.924 210.115 100.798C209.988 100.673 209.817 100.602 209.638 100.602C209.459 100.602 209.288 100.673 209.161 100.798C209.034 100.924 208.962 101.095 208.96 101.274V102.726C208.962 102.905 209.033 103.077 209.16 103.204C209.287 103.33 209.459 103.402 209.638 103.404Z" fill="#E6E6E6"/>
<path opacity="0.6" d="M202.24 141.222H299.518V100.602L202.24 100.602V141.222Z" fill="#E0E0E0"/>
<path d="M110.95 205.23H97.3481C95.9 205.23 94.7261 206.404 94.7261 207.852V231.348C94.7261 232.796 95.9 233.97 97.3481 233.97H110.95C112.398 233.97 113.572 232.796 113.572 231.348V207.852C113.572 206.404 112.398 205.23 110.95 205.23Z" fill="#FAFAFA"/>
<path d="M112.69 203.1H95.6081C95.121 203.1 94.7261 203.495 94.7261 203.982V204.69C94.7261 205.177 95.121 205.572 95.6081 205.572H112.69C113.177 205.572 113.572 205.177 113.572 204.69V203.982C113.572 203.495 113.177 203.1 112.69 203.1Z" fill="#E6E6E6"/>
<path d="M162.598 213.114H152.728C151.677 213.114 150.826 213.966 150.826 215.016V232.074C150.826 233.124 151.677 233.976 152.728 233.976H162.598C163.648 233.976 164.5 233.124 164.5 232.074V215.016C164.5 213.966 163.648 213.114 162.598 213.114Z" fill="#F0F0F0"/>
<path d="M163.864 211.566H151.462C151.111 211.566 150.826 211.851 150.826 212.202V212.724C150.826 213.075 151.111 213.36 151.462 213.36H163.864C164.215 213.36 164.5 213.075 164.5 212.724V212.202C164.5 211.851 164.215 211.566 163.864 211.566Z" fill="#E6E6E6"/>
<path d="M131.272 217.212H112.576C110.588 217.212 108.976 218.824 108.976 220.812V230.37C108.976 232.358 110.588 233.97 112.576 233.97H131.272C133.26 233.97 134.872 232.358 134.872 230.37V220.812C134.872 218.824 133.26 217.212 131.272 217.212Z" fill="#F0F0F0"/>
<path d="M133.666 214.284H110.182C109.516 214.284 108.976 214.824 108.976 215.49V216.474C108.976 217.14 109.516 217.68 110.182 217.68H133.666C134.332 217.68 134.872 217.14 134.872 216.474V215.49C134.872 214.824 134.332 214.284 133.666 214.284Z" fill="#F5F5F5"/>
<path d="M212.458 277.44H215.482V227.856H212.458V277.44Z" fill="#E6E6E6"/>
<path d="M299.776 218.202H283.402V227.85H299.776V218.202Z" fill="#E6E6E6"/>
<path d="M201.988 227.856H283.396V218.208H201.988V227.856Z" fill="#F5F5F5"/>
<path d="M299.776 243.972H283.402V253.62H299.776V243.972Z" fill="#E6E6E6"/>
<path d="M201.988 253.62H283.396V243.972H201.988V253.62Z" fill="#F5F5F5"/>
<path d="M293.866 277.44H296.89V227.856H293.866V277.44Z" fill="#E6E6E6"/>
<path d="M280.372 277.44H283.396V227.856H280.372V277.44Z" fill="#F5F5F5"/>
<path d="M201.988 277.44H205.012V227.856H201.988V277.44Z" fill="#F5F5F5"/>
<path d="M84.808 152.424H123.292V109.266H84.808V152.424Z" fill="#F0F0F0"/>
<path d="M82.0899 152.424H122.692V109.266H82.0899V152.424Z" fill="#F5F5F5"/>
<path d="M85.4919 112.662V149.022H119.29V112.662H85.4919Z" fill="white"/>
<path d="M96.7901 120.36C95.2191 120.35 93.6933 120.886 92.4736 121.876C91.2538 122.866 90.4158 124.249 90.1026 125.788C89.7895 127.328 90.0207 128.928 90.7567 130.316C91.4928 131.704 92.688 132.794 94.1381 133.398L119.296 144V129.252L99.4001 120.882C98.573 120.538 97.686 120.36 96.7901 120.36Z" fill="#F0F0F0"/>
<path d="M135.916 174H174.4V130.842H135.916V174Z" fill="#F0F0F0"/>
<path d="M133.198 174H173.8V130.842H133.198V174Z" fill="#F5F5F5"/>
<path d="M136.6 134.238V170.598H170.398V134.238H136.6Z" fill="white"/>
<path d="M157.306 148.302L136.6 139.59V154.668L151.912 161.106C153.61 161.822 155.523 161.834 157.23 161.14C158.937 160.446 160.298 159.102 161.014 157.404C161.73 155.706 161.742 153.793 161.048 152.086C160.354 150.379 159.01 149.018 157.312 148.302H157.306Z" fill="#F0F0F0"/>
<path d="M193 304.536C257.249 304.536 309.334 301.495 309.334 297.744C309.334 293.993 257.249 290.952 193 290.952C128.751 290.952 76.666 293.993 76.666 297.744C76.666 301.495 128.751 304.536 193 304.536Z" fill="#F5F5F5"/>
<path d="M159.442 117.726C160.042 115.2 166.318 112.8 171.718 116.526C174.112 118.147 175.907 120.509 176.829 123.249C177.75 125.989 177.746 128.956 176.818 131.694C173.92 140.274 189.046 139.956 192.55 154.422C195.316 165.822 192.754 181.968 177.316 181.092C153.754 179.754 155.788 156.726 154.756 144.624C153.724 132.522 140.866 118.95 159.442 117.726Z" fill="#263238"/>
<path d="M151.66 150.036C151.558 151.788 151.354 153.39 151.126 155.052C150.898 156.714 150.58 158.34 150.226 159.972C149.872 161.604 149.47 163.236 148.96 164.844C148.467 166.476 147.882 168.078 147.208 169.644L146.68 170.844C146.602 171.018 146.458 171.282 146.35 171.504C146.242 171.726 146.098 171.93 145.972 172.146C145.478 172.915 144.929 173.647 144.328 174.336C143.21 175.615 142.007 176.818 140.728 177.936C138.248 180.128 135.608 182.134 132.832 183.936L131.236 181.8C132.364 180.708 133.516 179.58 134.626 178.452C135.736 177.324 136.834 176.178 137.878 175.014C138.906 173.886 139.878 172.706 140.788 171.48C141.204 170.906 141.581 170.305 141.916 169.68C141.982 169.542 142.066 169.398 142.12 169.266C142.174 169.134 142.234 169.026 142.3 168.828L142.708 167.772C143.737 164.873 144.54 161.898 145.108 158.874C145.414 157.35 145.636 155.802 145.864 154.26C146.092 152.718 146.266 151.128 146.398 149.664L151.66 150.036Z" fill="#FFB573"/>
<path d="M148.06 143.736C145.93 144.276 144.46 153.048 144.46 153.048L152.614 158.592C152.614 158.592 155.968 148.194 154.324 145.848C152.596 143.4 151.168 142.944 148.06 143.736Z" fill="#FF0055"/>
<path opacity="0.2" d="M148.252 145.692L146.614 154.536L149.914 156.774L148.252 145.692Z" fill="black"/>
<path d="M132.208 181.068L126.718 181.944L129.85 185.412C129.85 185.412 133.084 184.674 133.654 182.604L132.208 181.068Z" fill="#FFB573"/>
<path d="M124.12 182.634L127.252 186.024L129.85 185.412L126.718 181.944L124.12 182.634Z" fill="#FFB573"/>
<path d="M159.592 291.36H154.42L154.072 279.384H159.244L159.592 291.36Z" fill="#FFB573"/>
<path d="M195.352 276.12L190.564 278.076L184.498 267.618L189.286 265.662L195.352 276.12Z" fill="#FFB573"/>
<path d="M189.664 277.356L194.656 274.392C194.742 274.339 194.844 274.318 194.943 274.335C195.042 274.352 195.132 274.404 195.196 274.482L198.112 278.082C198.179 278.175 198.226 278.282 198.25 278.394C198.274 278.507 198.275 278.623 198.251 278.736C198.228 278.848 198.182 278.955 198.116 279.049C198.05 279.143 197.964 279.222 197.866 279.282C196.108 280.284 195.208 280.68 193.012 281.988C191.662 282.792 188.482 285.54 186.616 286.65C184.75 287.76 183.556 285.972 184.216 285.342C186.416 283.353 188.083 280.845 189.064 278.046C189.18 277.755 189.392 277.511 189.664 277.356Z" fill="#263238"/>
<path d="M154.24 290.766H160.054C160.153 290.764 160.249 290.798 160.325 290.862C160.4 290.926 160.449 291.016 160.462 291.114L161.128 295.716C161.14 295.832 161.127 295.949 161.091 296.06C161.055 296.17 160.996 296.272 160.918 296.359C160.84 296.445 160.744 296.514 160.638 296.562C160.532 296.609 160.417 296.634 160.3 296.634C158.272 296.598 157.3 296.478 154.738 296.478C153.166 296.478 149.938 296.64 147.748 296.64C145.558 296.64 145.462 294.498 146.362 294.3C150.418 293.43 152.014 292.23 153.376 291.084C153.617 290.879 153.923 290.766 154.24 290.766Z" fill="#263238"/>
<g opacity="0.2">
<path d="M154.078 279.39L154.252 285.564H159.424L159.25 279.39H154.078Z" fill="black"/>
<path d="M189.292 265.662L184.498 267.618L187.63 273.012L192.418 271.056L189.292 265.662Z" fill="black"/>
</g>
<path d="M148.06 143.736C148.06 143.736 145.594 144.6 150.532 174.936H171.532C171.178 166.386 171.172 161.136 175.258 143.574C172.317 142.957 169.335 142.556 166.336 142.374C163.162 142.146 159.976 142.146 156.802 142.374C152.704 142.8 148.06 143.736 148.06 143.736Z" fill="#FF0055"/>
<path opacity="0.2" d="M173.524 150.528C171.622 151.002 169.864 153.078 170.074 156.9C170.192 158.633 170.8 160.298 171.826 161.7C172.162 158.76 172.726 155.346 173.626 150.978L173.524 150.528Z" fill="black"/>
<path d="M157.906 150.798C157.906 150.798 160.636 152.484 161.35 154.998C164.314 152.826 168.34 146.784 168.502 143.166C168.503 143.061 168.483 142.956 168.443 142.859C168.403 142.761 168.345 142.673 168.27 142.598C168.196 142.523 168.108 142.464 168.011 142.423C167.914 142.383 167.809 142.362 167.704 142.362C167.247 142.35 166.79 142.37 166.336 142.422L157.906 150.798Z" fill="#FAFAFA"/>
<path d="M157.906 150.798C157.906 150.798 155.176 152.484 154.462 154.998C151.276 152.664 153.046 144.96 154.87 142.398C155.512 142.33 156.16 142.33 156.802 142.398L157.906 150.798Z" fill="#FAFAFA"/>
<path d="M165.4 131.67C164.8 134.736 164.2 140.358 166.342 142.41C164.352 145.927 161.436 148.833 157.912 150.81C153.658 147.414 156.808 142.41 156.808 142.41C160.228 141.594 160.138 139.05 159.544 136.668L165.4 131.67Z" fill="#FFB573"/>
<path opacity="0.2" d="M163 133.71L159.532 136.668C159.682 137.222 159.78 137.788 159.826 138.36C161.134 138.168 163.192 137.058 163.474 135.636C163.6 134.964 163.12 134.028 163 133.71Z" fill="black"/>
<path d="M170.536 126.738C169.12 131.67 168.622 133.788 165.526 135.798C160.87 138.798 155.122 135.99 155.038 130.734C154.96 126 157.294 118.734 162.634 117.828C163.81 117.623 165.019 117.722 166.145 118.115C167.272 118.509 168.28 119.185 169.072 120.078C169.864 120.971 170.414 122.052 170.67 123.217C170.927 124.383 170.88 125.595 170.536 126.738Z" fill="#FFB573"/>
<path d="M159.886 118.266C160.12 119.934 169.252 125.298 170.986 122.502C172.72 119.706 170.224 117.6 166.336 117.066C164.112 116.717 161.836 117.14 159.886 118.266Z" fill="#263238"/>
<path d="M165.838 119.172C164.716 120.648 167.092 131.28 170.494 130.278C173.896 129.276 173.74 125.874 171.376 122.736C170.038 120.9 168.063 119.629 165.838 119.172Z" fill="#263238"/>
<path d="M150.532 174.948C150.532 174.948 146.452 214.8 146.8 230.55C147.154 246.954 153.166 284.37 153.166 284.37H160.156C160.156 284.37 159.052 247.914 159.67 231.804C160.342 214.242 165.922 174.948 165.922 174.948H150.532Z" fill="#FF0055"/>
<path opacity="0.4" d="M150.532 174.948C150.532 174.948 146.452 214.8 146.8 230.55C147.154 246.954 153.166 284.37 153.166 284.37H160.156C160.156 284.37 159.052 247.914 159.67 231.804C160.342 214.242 165.922 174.948 165.922 174.948H150.532Z" fill="black"/>
<path d="M160.75 284.616H152.548L151.948 282L161.134 281.682L160.75 284.616Z" fill="#263238"/>
<path opacity="0.2" d="M159.592 184.86C154.432 195.234 158.554 214.164 160.378 221.208C161.314 210.63 162.892 197.7 164.122 188.208C163.336 182.832 161.968 180.072 159.592 184.86Z" fill="black"/>
<path d="M156.076 174.948C156.076 174.948 160.834 216.348 164.428 229.656C168.694 245.442 186.028 272.376 186.028 272.376L192.556 269.712C192.556 269.712 181.366 239.046 178.102 230.712C171.142 212.958 177.1 186.51 171.538 174.912L156.076 174.948Z" fill="#FF0055"/>
<path opacity="0.4" d="M156.076 174.948C156.076 174.948 160.834 216.348 164.428 229.656C168.694 245.442 186.028 272.376 186.028 272.376L192.556 269.712C192.556 269.712 181.366 239.046 178.102 230.712C171.142 212.958 177.1 186.51 171.538 174.912L156.076 174.948Z" fill="black"/>
<path d="M193.444 269.742L185.344 273.048L183.442 270.858L192.796 266.538L193.444 269.742Z" fill="#263238"/>
<path d="M97.9659 122.256C92.7407 126.881 89.0042 132.951 87.2288 139.699C85.4535 146.447 85.7192 153.57 87.9921 160.167C90.2651 166.765 94.4434 172.54 99.9985 176.762C105.554 180.985 112.236 183.465 119.201 183.89C126.166 184.314 133.1 182.664 139.127 179.147C145.154 175.631 150.003 170.406 153.061 164.134C156.118 157.862 157.247 150.824 156.305 143.91C155.362 136.996 152.391 130.517 147.766 125.292C141.564 118.287 132.833 114.032 123.495 113.463C114.156 112.894 104.973 116.056 97.9659 122.256ZM141.028 170.916C136.63 174.808 131.176 177.308 125.357 178.1C119.537 178.892 113.614 177.941 108.335 175.366C103.057 172.792 98.6601 168.71 95.7013 163.637C92.7425 158.564 91.3545 152.727 91.7128 146.865C92.0711 141.004 94.1596 135.379 97.7142 130.704C101.269 126.029 106.13 122.514 111.683 120.601C117.236 118.689 123.231 118.466 128.91 119.961C134.59 121.456 139.698 124.602 143.59 129C146.174 131.92 148.158 135.321 149.427 139.008C150.697 142.695 151.228 146.596 150.99 150.489C150.752 154.381 149.75 158.188 148.041 161.693C146.331 165.198 143.948 168.332 141.028 170.916Z" fill="#263238"/>
<path opacity="0.3" d="M119.692 175.842C114.318 175.519 109.16 173.609 104.872 170.353C100.583 167.098 97.3566 162.644 95.6 157.555C93.8433 152.466 93.6356 146.97 95.0032 141.762C96.3707 136.555 99.2519 131.87 103.282 128.301C107.313 124.731 112.312 122.437 117.646 121.709C122.981 120.981 128.411 121.852 133.251 124.21C138.091 126.569 142.122 130.311 144.835 134.961C147.548 139.611 148.82 144.962 148.492 150.336C148.05 157.536 144.769 164.265 139.369 169.048C133.969 173.83 126.892 176.274 119.692 175.842Z" fill="#FF0055"/>
<g opacity="0.5">
<path d="M123.004 121.512H122.494L94.222 146.532L94.186 147.042C93.8192 152.941 95.3911 158.799 98.662 163.722L139 127.98C134.515 124.139 128.898 121.868 123.004 121.512Z" fill="#FAFAFA"/>
<path d="M141.634 130.536L100.876 166.602C102.237 168.174 103.775 169.583 105.46 170.802L145.216 135.6C144.219 133.781 143.017 132.082 141.634 130.536Z" fill="#FAFAFA"/>
</g>
<path d="M149.11 175.362L144.466 179.472C144.128 179.77 143.686 179.922 143.236 179.895C142.786 179.868 142.366 179.664 142.066 179.328C141.771 178.989 141.62 178.547 141.647 178.099C141.674 177.65 141.876 177.229 142.21 176.928L146.854 172.818C147.193 172.521 147.635 172.369 148.085 172.397C148.535 172.426 148.955 172.631 149.254 172.968C149.552 173.305 149.704 173.746 149.677 174.195C149.65 174.644 149.446 175.063 149.11 175.362Z" fill="#263238"/>
<path d="M147.4 174.6C150.898 177.678 154.246 180.894 157.552 184.152C160.858 187.41 164.086 190.752 167.278 194.076C170.47 197.4 173.602 200.832 176.71 204.276C179.626 207.876 183.598 210.54 184.192 216.192C184.238 216.644 184.177 217.101 184.012 217.524C183.847 217.947 183.583 218.325 183.243 218.627C182.903 218.928 182.496 219.144 182.056 219.257C181.616 219.37 181.155 219.377 180.712 219.276C175.168 217.998 173.014 213.732 169.798 210.396C166.766 206.896 163.778 203.364 160.834 199.8C157.89 196.236 155 192.614 152.164 188.934C149.332 185.262 146.548 181.548 143.914 177.702C143.576 177.231 143.424 176.651 143.488 176.075C143.552 175.499 143.827 174.967 144.26 174.582C144.693 174.196 145.254 173.985 145.834 173.988C146.413 173.992 146.971 174.21 147.4 174.6Z" fill="#263238"/>
<path d="M162.268 126.294C162.178 126.702 161.89 126.984 161.62 126.894C161.35 126.804 161.212 126.456 161.302 126.054C161.392 125.652 161.68 125.364 161.95 125.454C162.22 125.544 162.358 125.886 162.268 126.294Z" fill="#263238"/>
<path d="M157.666 125.274C157.576 125.682 157.282 125.964 157.018 125.904C156.754 125.844 156.61 125.466 156.7 125.058C156.79 124.65 157.078 124.368 157.348 124.428C157.618 124.488 157.756 124.866 157.666 125.274Z" fill="#263238"/>
<path d="M157.462 124.476L156.544 123.978C156.544 123.978 156.874 124.854 157.462 124.476Z" fill="#263238"/>
<path d="M158.92 126.324C158.351 127.171 157.668 127.936 156.892 128.598C157.066 128.793 157.281 128.948 157.522 129.052C157.762 129.155 158.022 129.205 158.284 129.198L158.92 126.324Z" fill="#ED893E"/>
<path d="M160.15 131.28C159.948 131.266 159.747 131.236 159.55 131.19C159.534 131.186 159.52 131.18 159.507 131.171C159.494 131.162 159.483 131.15 159.475 131.137C159.467 131.123 159.461 131.108 159.458 131.093C159.456 131.077 159.456 131.061 159.46 131.046C159.463 131.031 159.47 131.016 159.479 131.003C159.488 130.99 159.5 130.98 159.513 130.971C159.527 130.963 159.541 130.957 159.557 130.955C159.573 130.952 159.588 130.952 159.604 130.956C160.108 131.078 160.634 131.081 161.139 130.963C161.645 130.845 162.116 130.611 162.514 130.278C162.524 130.262 162.538 130.249 162.554 130.239C162.57 130.229 162.588 130.223 162.606 130.221C162.625 130.218 162.644 130.221 162.662 130.227C162.68 130.233 162.696 130.243 162.709 130.257C162.722 130.27 162.733 130.286 162.739 130.304C162.745 130.322 162.747 130.341 162.745 130.359C162.743 130.378 162.737 130.396 162.727 130.412C162.717 130.428 162.704 130.442 162.688 130.452C162.341 130.751 161.938 130.978 161.502 131.12C161.066 131.263 160.607 131.317 160.15 131.28Z" fill="#263238"/>
<path d="M170.866 131.658C170.589 132.066 170.235 132.416 169.823 132.686C169.411 132.957 168.95 133.144 168.466 133.236C167.17 133.476 166.666 132.288 167.104 131.13C167.512 130.086 168.688 128.73 169.936 128.994C170.208 129.062 170.458 129.196 170.665 129.384C170.872 129.573 171.029 129.81 171.121 130.075C171.213 130.339 171.238 130.622 171.194 130.899C171.149 131.175 171.037 131.436 170.866 131.658Z" fill="#FFB573"/>
<path d="M164.2 124.5C164.151 124.515 164.099 124.514 164.051 124.498C164.002 124.482 163.96 124.451 163.93 124.41C163.264 123.492 161.8 123.504 161.788 123.504C161.723 123.504 161.66 123.478 161.614 123.432C161.568 123.386 161.542 123.323 161.542 123.258C161.541 123.226 161.547 123.194 161.559 123.164C161.57 123.135 161.588 123.107 161.61 123.084C161.633 123.061 161.659 123.043 161.689 123.031C161.718 123.018 161.75 123.012 161.782 123.012C161.854 123.012 163.51 123.012 164.326 124.122C164.364 124.175 164.38 124.24 164.369 124.304C164.359 124.368 164.324 124.426 164.272 124.464L164.2 124.5Z" fill="#263238"/>
<path d="M156.706 121.902C156.664 121.899 156.623 121.885 156.587 121.862C156.551 121.839 156.522 121.807 156.502 121.77C156.473 121.712 156.468 121.645 156.488 121.583C156.508 121.521 156.552 121.47 156.61 121.44C156.953 121.256 157.335 121.156 157.724 121.149C158.113 121.142 158.498 121.227 158.848 121.398C158.903 121.432 158.943 121.485 158.96 121.548C158.977 121.611 158.969 121.677 158.938 121.734C158.905 121.79 158.852 121.832 158.789 121.849C158.726 121.865 158.658 121.857 158.602 121.824C158.324 121.693 158.018 121.629 157.71 121.638C157.403 121.648 157.102 121.73 156.832 121.878C156.792 121.895 156.749 121.903 156.706 121.902Z" fill="#263238"/>
<path d="M187.678 279.318H187.6C187.484 279.291 187.377 279.236 187.288 279.156C187.2 279.076 187.134 278.975 187.096 278.862C187.062 278.796 187.047 278.722 187.053 278.648C187.058 278.574 187.083 278.503 187.126 278.442C187.504 277.902 189.376 277.968 189.586 277.98C189.61 277.979 189.634 277.986 189.653 278C189.673 278.014 189.687 278.035 189.694 278.058C189.702 278.081 189.703 278.105 189.698 278.128C189.693 278.152 189.681 278.173 189.664 278.19C189.202 278.646 188.32 279.396 187.678 279.318ZM189.298 278.208C188.548 278.208 187.546 278.292 187.348 278.574C187.332 278.602 187.323 278.634 187.323 278.667C187.323 278.7 187.332 278.732 187.348 278.76C187.372 278.835 187.415 278.904 187.473 278.958C187.531 279.013 187.601 279.052 187.678 279.072C188.02 279.15 188.614 278.82 189.298 278.208Z" fill="#FF0055"/>
<path d="M189.4 278.208C188.758 278.13 187.6 277.692 187.444 277.188C187.412 277.096 187.412 276.996 187.445 276.904C187.478 276.812 187.541 276.735 187.624 276.684C187.697 276.626 187.783 276.584 187.874 276.562C187.965 276.541 188.06 276.539 188.152 276.558C188.89 276.702 189.658 277.98 189.694 278.034C189.703 278.053 189.708 278.073 189.708 278.094C189.708 278.115 189.703 278.135 189.694 278.154C189.683 278.172 189.667 278.188 189.648 278.198C189.629 278.209 189.608 278.214 189.586 278.214C189.524 278.218 189.462 278.216 189.4 278.208ZM188.074 276.792C187.967 276.78 187.859 276.81 187.774 276.876C187.648 276.972 187.654 277.05 187.678 277.104C187.798 277.446 188.728 277.872 189.352 277.956C189.076 277.542 188.548 276.882 188.11 276.798L188.074 276.792Z" fill="#FF0055"/>
<path d="M152.302 291.666C151.86 291.708 151.417 291.595 151.048 291.348C150.964 291.274 150.9 291.181 150.861 291.076C150.822 290.971 150.81 290.859 150.826 290.748C150.829 290.681 150.849 290.616 150.885 290.559C150.92 290.502 150.97 290.455 151.03 290.424C151.666 290.07 153.73 291.126 153.958 291.246C153.98 291.258 153.999 291.276 154.01 291.299C154.022 291.321 154.027 291.347 154.024 291.372C154.021 291.397 154.011 291.421 153.993 291.439C153.976 291.458 153.953 291.47 153.928 291.474C153.393 291.59 152.849 291.654 152.302 291.666ZM151.378 290.598C151.3 290.593 151.221 290.608 151.15 290.64C151.126 290.654 151.106 290.673 151.092 290.696C151.077 290.719 151.068 290.745 151.066 290.772C151.057 290.845 151.065 290.919 151.09 290.987C151.115 291.056 151.156 291.118 151.21 291.168C151.522 291.45 152.374 291.498 153.52 291.306C152.851 290.951 152.127 290.712 151.378 290.598Z" fill="#FF0055"/>
<path d="M153.904 291.486H153.856C153.256 291.21 152.02 290.094 152.116 289.506C152.116 289.368 152.236 289.194 152.572 289.158C152.694 289.145 152.817 289.157 152.934 289.195C153.05 289.232 153.158 289.293 153.25 289.374C153.904 289.914 154.024 291.306 154.024 291.366C154.027 291.387 154.024 291.408 154.016 291.427C154.007 291.446 153.994 291.463 153.976 291.474C153.954 291.486 153.929 291.49 153.904 291.486ZM152.674 289.386H152.596C152.374 289.386 152.362 289.5 152.356 289.53C152.296 289.878 153.124 290.76 153.754 291.138C153.705 290.55 153.475 289.992 153.094 289.542C152.979 289.438 152.829 289.382 152.674 289.386Z" fill="#FF0055"/>
<path d="M162.064 125.502L161.146 124.998C161.146 124.998 161.476 125.874 162.064 125.502Z" fill="#263238"/>
<path d="M171.85 173.712L172.384 175.59C172.456 175.74 172.288 175.89 172.042 175.89H150.4C150.214 175.89 150.058 175.794 150.046 175.674L149.854 173.796C149.854 173.664 150.004 173.556 150.214 173.556H171.484C171.553 173.545 171.625 173.554 171.689 173.582C171.754 173.61 171.81 173.655 171.85 173.712Z" fill="#FF0055"/>
<path opacity="0.2" d="M171.85 173.712L172.384 175.59C172.456 175.74 172.288 175.89 172.042 175.89H150.4C150.214 175.89 150.058 175.794 150.046 175.674L149.854 173.796C149.854 173.664 150.004 173.556 150.214 173.556H171.484C171.553 173.545 171.625 173.554 171.689 173.582C171.754 173.61 171.81 173.655 171.85 173.712Z" fill="black"/>
<path d="M168.922 176.088H169.492C169.606 176.088 169.69 176.034 169.684 175.962L169.414 173.52C169.414 173.448 169.306 173.388 169.198 173.388H168.598C168.484 173.388 168.394 173.448 168.406 173.52L168.67 175.962C168.706 176.034 168.808 176.088 168.922 176.088Z" fill="#FF0055"/>
<path opacity="0.4" d="M168.922 176.088H169.492C169.606 176.088 169.69 176.034 169.684 175.962L169.414 173.52C169.414 173.448 169.306 173.388 169.198 173.388H168.598C168.484 173.388 168.394 173.448 168.406 173.52L168.67 175.962C168.706 176.034 168.808 176.088 168.922 176.088Z" fill="white"/>
<path d="M152.026 176.088H152.596C152.71 176.088 152.794 176.034 152.788 175.962L152.524 173.52C152.524 173.448 152.416 173.388 152.302 173.388H151.732C151.618 173.388 151.534 173.448 151.54 173.52L151.804 175.962C151.816 176.034 151.912 176.088 152.026 176.088Z" fill="#FF0055"/>
<path opacity="0.4" d="M152.026 176.088H152.596C152.71 176.088 152.794 176.034 152.788 175.962L152.524 173.52C152.524 173.448 152.416 173.388 152.302 173.388H151.732C151.618 173.388 151.534 173.448 151.54 173.52L151.804 175.962C151.816 176.034 151.912 176.088 152.026 176.088Z" fill="white"/>
<path d="M160.438 176.088H161.038C161.152 176.088 161.236 176.034 161.23 175.962L160.966 173.52C160.966 173.448 160.858 173.388 160.744 173.388H160.174C160.06 173.388 159.976 173.448 159.982 173.52L160.246 175.962C160.228 176.034 160.324 176.088 160.438 176.088Z" fill="#FF0055"/>
<path opacity="0.4" d="M160.438 176.088H161.038C161.152 176.088 161.236 176.034 161.23 175.962L160.966 173.52C160.966 173.448 160.858 173.388 160.744 173.388H160.174C160.06 173.388 159.976 173.448 159.982 173.52L160.246 175.962C160.228 176.034 160.324 176.088 160.438 176.088Z" fill="white"/>
<path d="M158.914 179.136L153.814 176.856L155.266 181.914C155.266 181.914 158.506 182.646 159.916 181.02L158.914 179.136Z" fill="#FFB573"/>
<path d="M177.706 149.814C177.94 151.584 178.126 153.366 178.336 155.136L178.876 160.476C179.068 162.276 179.212 164.034 179.38 165.816L179.602 168.486L179.662 169.158C179.662 169.224 179.662 169.5 179.662 169.692C179.662 169.884 179.662 170.106 179.662 170.292C179.572 171.055 179.33 171.792 178.948 172.458C178.33 173.485 177.514 174.378 176.548 175.086C175.738 175.697 174.879 176.241 173.98 176.712C172.299 177.58 170.552 178.313 168.754 178.902C166.996 179.502 165.232 180 163.462 180.444C161.692 180.888 159.922 181.254 158.092 181.536L157.492 178.986C159.142 178.44 160.828 177.882 162.466 177.252C164.104 176.622 165.742 176.004 167.314 175.29C168.861 174.613 170.361 173.831 171.802 172.95C172.466 172.549 173.097 172.093 173.686 171.588C174.148 171.214 174.533 170.753 174.82 170.232C174.882 170.118 174.915 169.99 174.916 169.86C174.916 169.86 174.916 169.86 174.916 169.812C174.916 169.764 174.916 169.812 174.916 169.68L174.82 169.02L174.436 166.362C174.202 164.562 173.938 162.816 173.722 161.04L173.044 155.718C172.852 153.918 172.63 152.166 172.444 150.384L177.706 149.814Z" fill="#FFB573"/>
<path d="M175.258 143.586C177.358 144.222 179.89 151.47 179.89 151.47L172.528 159.048C172.528 159.048 168.748 151.248 169.63 148.536C170.554 145.704 172.858 142.854 175.258 143.586Z" fill="#FF0055"/>
<path d="M149.596 177.906L151.036 182.07L155.266 181.914L153.814 176.856L149.596 177.906Z" fill="#FFB573"/>
<path d="M220.816 162.972C222.196 153.108 215.308 145.11 205.444 145.11H277.516C287.386 145.11 294.268 153.108 292.894 162.972H220.816Z" fill="#263238"/>
<path opacity="0.7" d="M220.816 162.972C222.196 153.108 215.308 145.11 205.444 145.11H277.516C287.386 145.11 294.268 153.108 292.894 162.972H220.816Z" fill="#FF0055"/>
<path d="M205.444 145.11H277.516C267.652 145.11 258.538 153.108 257.164 162.972L240.868 279.876C239.494 289.746 230.38 297.744 220.516 297.744H184.168C174.304 297.744 167.422 289.746 168.796 279.876L185.086 162.972C186.466 153.108 195.574 145.11 205.444 145.11Z" fill="#FF0055"/>
<path d="M205.138 279.876C203.764 289.746 210.646 297.744 220.516 297.744H148.438C138.574 297.744 131.692 289.746 133.066 279.876H205.138Z" fill="#263238"/>
<path opacity="0.7" d="M205.138 279.876C203.764 289.746 210.646 297.744 220.516 297.744H148.438C138.574 297.744 131.692 289.746 133.066 279.876H205.138Z" fill="#FF0055"/>
<path opacity="0.4" d="M216.694 181.476H244.6C245.007 181.457 245.395 181.3 245.701 181.032C246.007 180.764 246.213 180.4 246.286 180C246.318 179.816 246.309 179.627 246.259 179.448C246.21 179.268 246.121 179.101 245.999 178.959C245.878 178.818 245.726 178.705 245.556 178.628C245.386 178.552 245.201 178.514 245.014 178.518H217.108C216.699 178.531 216.307 178.686 215.999 178.956C215.691 179.227 215.487 179.596 215.422 180C215.39 180.184 215.399 180.372 215.449 180.552C215.498 180.731 215.587 180.898 215.709 181.039C215.831 181.18 215.982 181.293 216.152 181.368C216.323 181.444 216.508 181.481 216.694 181.476Z" fill="white"/>
<path opacity="0.4" d="M215.926 186.978H236.44C236.848 186.965 237.24 186.811 237.547 186.542C237.855 186.273 238.059 185.905 238.126 185.502C238.158 185.318 238.149 185.13 238.099 184.95C238.05 184.771 237.961 184.604 237.839 184.463C237.717 184.322 237.566 184.209 237.396 184.134C237.225 184.058 237.04 184.021 236.854 184.026H216.34C215.931 184.037 215.539 184.191 215.231 184.461C214.924 184.73 214.719 185.098 214.654 185.502C214.622 185.686 214.631 185.874 214.681 186.054C214.73 186.233 214.819 186.4 214.941 186.541C215.062 186.682 215.214 186.795 215.384 186.87C215.555 186.946 215.74 186.983 215.926 186.978Z" fill="white"/>
<path opacity="0.4" d="M204.355 187.848C208.215 184.247 208.804 178.606 205.671 175.247C202.538 171.889 196.87 172.085 193.01 175.686C189.15 179.287 188.56 184.928 191.693 188.287C194.826 191.645 200.495 191.449 204.355 187.848Z" fill="white"/>
<path d="M190.726 181.8C190.533 183.08 190.682 184.388 191.158 185.592C191.676 186.858 192.568 187.936 193.715 188.682C194.863 189.427 196.211 189.804 197.578 189.762C199.083 189.726 200.558 189.329 201.877 188.603C203.196 187.877 204.32 186.844 205.156 185.592C205.938 184.46 206.447 183.162 206.644 181.8C207.244 177.408 204.19 173.844 199.792 173.844C197.591 173.907 195.481 174.736 193.826 176.189C192.171 177.641 191.074 179.626 190.726 181.8Z" fill="white"/>
<path opacity="0.4" d="M192.892 184.8C193.289 185.771 193.973 186.597 194.852 187.169C195.731 187.74 196.764 188.03 197.812 187.998C198.968 187.971 200.1 187.667 201.113 187.11C202.126 186.553 202.99 185.761 203.632 184.8C202.137 183.721 200.334 183.151 198.49 183.174C196.51 183.191 194.573 183.753 192.892 184.8Z" fill="#263238"/>
<path opacity="0.4" d="M196.234 179.82C196.173 180.159 196.189 180.507 196.28 180.839C196.37 181.172 196.534 181.479 196.759 181.74C196.984 182.001 197.264 182.209 197.579 182.348C197.894 182.487 198.236 182.554 198.58 182.544C199.333 182.522 200.054 182.238 200.62 181.741C201.185 181.243 201.559 180.564 201.676 179.82C201.737 179.482 201.722 179.134 201.631 178.803C201.541 178.471 201.377 178.164 201.153 177.904C200.929 177.644 200.65 177.436 200.335 177.298C200.021 177.159 199.68 177.092 199.336 177.102C198.584 177.123 197.862 177.406 197.296 177.902C196.729 178.399 196.354 179.077 196.234 179.82Z" fill="#263238"/>
<path opacity="0.4" d="M213.346 205.518H222.76C223.169 205.505 223.56 205.351 223.868 205.082C224.175 204.813 224.38 204.445 224.446 204.042C224.478 203.858 224.469 203.67 224.419 203.49C224.37 203.311 224.281 203.144 224.159 203.003C224.038 202.862 223.886 202.749 223.716 202.674C223.545 202.598 223.36 202.561 223.174 202.566H213.754C213.346 202.578 212.955 202.732 212.648 203.001C212.341 203.271 212.138 203.639 212.074 204.042C212.042 204.226 212.051 204.414 212.101 204.594C212.15 204.773 212.239 204.94 212.361 205.081C212.483 205.222 212.634 205.335 212.804 205.41C212.975 205.486 213.16 205.523 213.346 205.518Z" fill="white"/>
<path opacity="0.4" d="M228.442 205.518H241.894C242.303 205.505 242.694 205.351 243.002 205.082C243.309 204.813 243.514 204.445 243.58 204.042C243.613 203.858 243.605 203.669 243.556 203.489C243.507 203.309 243.418 203.142 243.296 203.001C243.174 202.859 243.022 202.747 242.851 202.672C242.68 202.596 242.495 202.56 242.308 202.566H228.856C228.447 202.577 228.055 202.731 227.747 203.001C227.44 203.27 227.236 203.638 227.17 204.042C227.138 204.226 227.147 204.414 227.197 204.594C227.246 204.773 227.335 204.94 227.457 205.081C227.579 205.222 227.73 205.335 227.9 205.41C228.071 205.486 228.256 205.523 228.442 205.518Z" fill="white"/>
<path opacity="0.4" d="M212.578 211.026H235.636C236.045 211.013 236.437 210.858 236.745 210.588C237.053 210.317 237.257 209.948 237.322 209.544C237.354 209.36 237.345 209.172 237.295 208.992C237.246 208.813 237.157 208.646 237.035 208.505C236.913 208.364 236.762 208.251 236.592 208.176C236.421 208.1 236.236 208.063 236.05 208.068H212.986C212.578 208.082 212.188 208.237 211.882 208.506C211.576 208.775 211.372 209.142 211.306 209.544C211.273 209.728 211.281 209.917 211.33 210.098C211.38 210.278 211.468 210.445 211.59 210.587C211.712 210.729 211.864 210.842 212.034 210.918C212.205 210.994 212.391 211.031 212.578 211.026Z" fill="white"/>
<path opacity="0.4" d="M201.006 211.892C204.866 208.292 205.456 202.65 202.323 199.292C199.19 195.933 193.521 196.13 189.661 199.73C185.801 203.331 185.212 208.973 188.345 212.331C191.478 215.69 197.146 215.493 201.006 211.892Z" fill="white"/>
<path d="M187.372 205.8C187.181 207.08 187.332 208.389 187.81 209.592C188.323 210.857 189.21 211.935 190.351 212.684C191.493 213.432 192.835 213.814 194.2 213.78C195.705 213.745 197.18 213.348 198.499 212.622C199.818 211.896 200.943 210.863 201.778 209.61C202.565 208.48 203.077 207.181 203.272 205.818C203.872 201.426 200.818 197.862 196.42 197.862C194.225 197.928 192.121 198.757 190.47 200.205C188.819 201.654 187.724 203.632 187.372 205.8Z" fill="white"/>
<path opacity="0.4" d="M189.538 208.86C189.936 209.831 190.621 210.658 191.501 211.229C192.381 211.801 193.415 212.09 194.464 212.058C195.619 212.03 196.75 211.725 197.761 211.169C198.773 210.612 199.637 209.82 200.278 208.86C198.783 207.78 196.98 207.21 195.136 207.234C193.156 207.253 191.22 207.815 189.538 208.86Z" fill="#263238"/>
<path opacity="0.4" d="M192.886 203.862C192.825 204.2 192.841 204.548 192.931 204.88C193.022 205.212 193.185 205.519 193.409 205.78C193.633 206.041 193.912 206.248 194.227 206.388C194.541 206.527 194.882 206.595 195.226 206.586C195.979 206.565 196.702 206.281 197.268 205.783C197.835 205.286 198.209 204.606 198.328 203.862C198.389 203.524 198.373 203.176 198.283 202.845C198.193 202.513 198.029 202.206 197.805 201.946C197.581 201.686 197.301 201.478 196.987 201.34C196.673 201.201 196.331 201.134 195.988 201.144C195.235 201.165 194.514 201.448 193.947 201.944C193.381 202.441 193.006 203.119 192.886 203.862Z" fill="#263238"/>
<path opacity="0.4" d="M209.992 229.566H226.39C226.8 229.553 227.192 229.398 227.499 229.128C227.807 228.857 228.011 228.488 228.076 228.084C228.108 227.9 228.099 227.712 228.049 227.532C228 227.353 227.911 227.186 227.789 227.045C227.668 226.904 227.516 226.791 227.346 226.716C227.175 226.64 226.99 226.603 226.804 226.608H210.4C209.992 226.621 209.6 226.775 209.293 227.044C208.985 227.313 208.781 227.681 208.714 228.084C208.681 228.269 208.69 228.458 208.739 228.639C208.788 228.82 208.878 228.987 209 229.129C209.123 229.271 209.275 229.384 209.447 229.46C209.618 229.535 209.805 229.572 209.992 229.566Z" fill="white"/>
<path opacity="0.4" d="M209.2 235.068H234.766C235.173 235.049 235.562 234.891 235.868 234.622C236.175 234.353 236.38 233.987 236.452 233.586C236.483 233.402 236.473 233.214 236.423 233.034C236.372 232.854 236.283 232.688 236.161 232.547C236.039 232.406 235.887 232.294 235.716 232.218C235.546 232.143 235.36 232.106 235.174 232.11H209.614C209.205 232.123 208.814 232.277 208.507 232.546C208.199 232.815 207.995 233.183 207.928 233.586C207.895 233.77 207.903 233.959 207.952 234.14C208.002 234.32 208.09 234.487 208.212 234.629C208.334 234.771 208.486 234.884 208.657 234.96C208.827 235.036 209.013 235.073 209.2 235.068Z" fill="white"/>
<path opacity="0.2" d="M181.234 258.492H220.378C220.951 258.473 221.501 258.256 221.932 257.877C222.363 257.499 222.649 256.982 222.742 256.416C222.788 256.157 222.775 255.891 222.705 255.638C222.635 255.384 222.509 255.15 222.336 254.951C222.164 254.753 221.949 254.596 221.708 254.491C221.466 254.386 221.205 254.337 220.942 254.346H181.81C181.237 254.363 180.689 254.578 180.258 254.956C179.828 255.334 179.543 255.85 179.452 256.416C179.406 256.674 179.417 256.939 179.486 257.192C179.555 257.444 179.679 257.679 179.85 257.878C180.02 258.076 180.233 258.235 180.472 258.341C180.712 258.447 180.972 258.499 181.234 258.492Z" fill="white"/>
<path opacity="0.2" d="M180.16 266.208H208.924C209.497 266.19 210.046 265.973 210.476 265.594C210.907 265.215 211.192 264.698 211.282 264.132C211.328 263.873 211.315 263.607 211.245 263.354C211.175 263.1 211.049 262.866 210.876 262.667C210.704 262.469 210.489 262.312 210.248 262.207C210.007 262.102 209.745 262.053 209.482 262.062H180.736C180.163 262.079 179.614 262.295 179.183 262.673C178.752 263.051 178.465 263.566 178.372 264.132C178.332 264.389 178.349 264.652 178.42 264.903C178.492 265.153 178.617 265.385 178.787 265.583C178.957 265.78 179.168 265.938 179.405 266.046C179.642 266.154 179.9 266.209 180.16 266.208Z" fill="white"/>
<path opacity="0.2" d="M194.842 164.046H241.516C241.809 164.033 242.089 163.919 242.308 163.723C242.526 163.527 242.671 163.262 242.716 162.972C242.739 162.839 242.733 162.702 242.696 162.572C242.66 162.442 242.596 162.321 242.507 162.219C242.419 162.117 242.309 162.035 242.185 161.981C242.061 161.927 241.927 161.9 241.792 161.904H195.142C194.85 161.919 194.573 162.033 194.354 162.227C194.136 162.421 193.991 162.684 193.942 162.972C193.919 163.103 193.926 163.238 193.96 163.367C193.995 163.496 194.057 163.615 194.143 163.718C194.229 163.82 194.336 163.902 194.456 163.959C194.577 164.016 194.709 164.045 194.842 164.046Z" fill="white"/>
<path opacity="0.4" d="M197.656 235.937C201.516 232.336 202.105 226.694 198.972 223.336C195.839 219.977 190.17 220.174 186.31 223.775C182.45 227.375 181.861 233.017 184.994 236.375C188.127 239.734 193.796 239.537 197.656 235.937Z" fill="white"/>
<path d="M184 229.866C183.807 231.146 183.956 232.454 184.432 233.658C184.951 234.923 185.844 235.999 186.991 236.743C188.139 237.487 189.485 237.863 190.852 237.822C192.357 237.786 193.83 237.39 195.149 236.665C196.468 235.94 197.593 234.909 198.43 233.658C199.211 232.525 199.72 231.228 199.918 229.866C200.518 225.468 197.464 221.904 193.066 221.904C190.864 221.967 188.753 222.797 187.098 224.251C185.443 225.705 184.347 227.691 184 229.866Z" fill="white"/>
<path opacity="0.4" d="M186.19 232.908C186.588 233.879 187.273 234.706 188.153 235.277C189.033 235.849 190.067 236.138 191.116 236.106C192.27 236.078 193.401 235.773 194.413 235.217C195.425 234.66 196.288 233.868 196.93 232.908C195.436 231.826 193.632 231.256 191.788 231.282C189.807 231.296 187.87 231.859 186.19 232.908Z" fill="#263238"/>
<path opacity="0.4" d="M189.532 227.91C189.472 228.249 189.488 228.596 189.58 228.928C189.671 229.259 189.835 229.566 190.059 229.826C190.284 230.086 190.564 230.293 190.878 230.432C191.193 230.571 191.534 230.638 191.878 230.628C192.63 230.607 193.351 230.323 193.916 229.827C194.481 229.331 194.855 228.653 194.974 227.91C195.035 227.572 195.019 227.224 194.929 226.892C194.838 226.56 194.675 226.253 194.451 225.992C194.227 225.731 193.948 225.524 193.633 225.384C193.319 225.245 192.978 225.177 192.634 225.186C191.88 225.207 191.158 225.491 190.592 225.989C190.025 226.486 189.65 227.166 189.532 227.91Z" fill="#263238"/>
<path d="M96.0199 377.644V393H92.9399V377.644H96.0199ZM119.441 380.636C120.937 380.636 122.14 381.098 123.049 382.022C123.973 382.931 124.435 384.207 124.435 385.85V393H121.355V386.268C121.355 385.315 121.113 384.589 120.629 384.09C120.145 383.577 119.485 383.32 118.649 383.32C117.813 383.32 117.146 383.577 116.647 384.09C116.163 384.589 115.921 385.315 115.921 386.268V393H112.841V386.268C112.841 385.315 112.599 384.589 112.115 384.09C111.631 383.577 110.971 383.32 110.135 383.32C109.284 383.32 108.61 383.577 108.111 384.09C107.627 384.589 107.385 385.315 107.385 386.268V393H104.305V380.812H107.385V382.286C107.781 381.773 108.287 381.369 108.903 381.076C109.534 380.783 110.223 380.636 110.971 380.636C111.924 380.636 112.775 380.841 113.523 381.252C114.271 381.648 114.85 382.22 115.261 382.968C115.657 382.264 116.229 381.699 116.977 381.274C117.74 380.849 118.561 380.636 119.441 380.636ZM131.808 386.862C131.808 385.63 132.05 384.537 132.534 383.584C133.033 382.631 133.7 381.897 134.536 381.384C135.387 380.871 136.333 380.614 137.374 380.614C138.283 380.614 139.075 380.797 139.75 381.164C140.439 381.531 140.989 381.993 141.4 382.55V380.812H144.502V393H141.4V391.218C141.004 391.79 140.454 392.267 139.75 392.648C139.061 393.015 138.261 393.198 137.352 393.198C136.325 393.198 135.387 392.934 134.536 392.406C133.7 391.878 133.033 391.137 132.534 390.184C132.05 389.216 131.808 388.109 131.808 386.862ZM141.4 386.906C141.4 386.158 141.253 385.52 140.96 384.992C140.667 384.449 140.271 384.039 139.772 383.76C139.273 383.467 138.738 383.32 138.166 383.32C137.594 383.32 137.066 383.459 136.582 383.738C136.098 384.017 135.702 384.427 135.394 384.97C135.101 385.498 134.954 386.129 134.954 386.862C134.954 387.595 135.101 388.241 135.394 388.798C135.702 389.341 136.098 389.759 136.582 390.052C137.081 390.345 137.609 390.492 138.166 390.492C138.738 390.492 139.273 390.353 139.772 390.074C140.271 389.781 140.667 389.37 140.96 388.842C141.253 388.299 141.4 387.654 141.4 386.906ZM151.96 386.906C151.96 385.645 152.217 384.545 152.73 383.606C153.244 382.653 153.955 381.919 154.864 381.406C155.774 380.878 156.815 380.614 157.988 380.614C159.499 380.614 160.746 380.995 161.728 381.758C162.726 382.506 163.393 383.562 163.73 384.926H160.408C160.232 384.398 159.932 383.987 159.506 383.694C159.096 383.386 158.582 383.232 157.966 383.232C157.086 383.232 156.39 383.555 155.876 384.2C155.363 384.831 155.106 385.733 155.106 386.906C155.106 388.065 155.363 388.967 155.876 389.612C156.39 390.243 157.086 390.558 157.966 390.558C159.213 390.558 160.027 390.001 160.408 388.886H163.73C163.393 390.206 162.726 391.255 161.728 392.032C160.731 392.809 159.484 393.198 157.988 393.198C156.815 393.198 155.774 392.941 154.864 392.428C153.955 391.9 153.244 391.167 152.73 390.228C152.217 389.275 151.96 388.167 151.96 386.906ZM169.067 376.72V393H165.987V376.72H169.067ZM173.672 379.36C173.129 379.36 172.674 379.191 172.308 378.854C171.956 378.502 171.78 378.069 171.78 377.556C171.78 377.043 171.956 376.617 172.308 376.28C172.674 375.928 173.129 375.752 173.672 375.752C174.214 375.752 174.662 375.928 175.014 376.28C175.38 376.617 175.564 377.043 175.564 377.556C175.564 378.069 175.38 378.502 175.014 378.854C174.662 379.191 174.214 379.36 173.672 379.36ZM175.19 380.812V393H172.11V380.812H175.19ZM189.563 386.642C189.563 387.082 189.534 387.478 189.475 387.83H180.565C180.638 388.71 180.946 389.399 181.489 389.898C182.032 390.397 182.699 390.646 183.491 390.646C184.635 390.646 185.449 390.155 185.933 389.172H189.255C188.903 390.345 188.228 391.313 187.231 392.076C186.234 392.824 185.009 393.198 183.557 393.198C182.384 393.198 181.328 392.941 180.389 392.428C179.465 391.9 178.739 391.159 178.211 390.206C177.698 389.253 177.441 388.153 177.441 386.906C177.441 385.645 177.698 384.537 178.211 383.584C178.724 382.631 179.443 381.897 180.367 381.384C181.291 380.871 182.354 380.614 183.557 380.614C184.716 380.614 185.75 380.863 186.659 381.362C187.583 381.861 188.294 382.572 188.793 383.496C189.306 384.405 189.563 385.454 189.563 386.642ZM186.373 385.762C186.358 384.97 186.072 384.339 185.515 383.87C184.958 383.386 184.276 383.144 183.469 383.144C182.706 383.144 182.061 383.379 181.533 383.848C181.02 384.303 180.704 384.941 180.587 385.762H186.373ZM198.565 380.636C200.017 380.636 201.19 381.098 202.085 382.022C202.98 382.931 203.427 384.207 203.427 385.85V393H200.347V386.268C200.347 385.3 200.105 384.559 199.621 384.046C199.137 383.518 198.477 383.254 197.641 383.254C196.79 383.254 196.116 383.518 195.617 384.046C195.133 384.559 194.891 385.3 194.891 386.268V393H191.811V380.812H194.891V382.33C195.302 381.802 195.822 381.391 196.453 381.098C197.098 380.79 197.802 380.636 198.565 380.636ZM209.942 383.342V389.238C209.942 389.649 210.037 389.949 210.228 390.14C210.433 390.316 210.771 390.404 211.24 390.404H212.67V393H210.734C208.138 393 206.84 391.739 206.84 389.216V383.342H205.388V380.812H206.84V377.798H209.942V380.812H212.67V383.342H209.942ZM218.251 389.766L215.677 395.948H213.697L215.127 389.766H218.251ZM232.577 380.636C233.501 380.636 234.323 380.841 235.041 381.252C235.76 381.648 236.317 382.242 236.713 383.034C237.124 383.811 237.329 384.75 237.329 385.85V393H234.249V386.268C234.249 385.3 234.007 384.559 233.523 384.046C233.039 383.518 232.379 383.254 231.543 383.254C230.693 383.254 230.018 383.518 229.519 384.046C229.035 384.559 228.793 385.3 228.793 386.268V393H225.713V376.72H228.793V382.33C229.189 381.802 229.717 381.391 230.377 381.098C231.037 380.79 231.771 380.636 232.577 380.636ZM241.82 379.36C241.278 379.36 240.823 379.191 240.456 378.854C240.104 378.502 239.928 378.069 239.928 377.556C239.928 377.043 240.104 376.617 240.456 376.28C240.823 375.928 241.278 375.752 241.82 375.752C242.363 375.752 242.81 375.928 243.162 376.28C243.529 376.617 243.712 377.043 243.712 377.556C243.712 378.069 243.529 378.502 243.162 378.854C242.81 379.191 242.363 379.36 241.82 379.36ZM243.338 380.812V393H240.258V380.812H243.338ZM249.461 382.704C249.857 382.059 250.371 381.553 251.001 381.186C251.647 380.819 252.38 380.636 253.201 380.636V383.87H252.387C251.419 383.87 250.686 384.097 250.187 384.552C249.703 385.007 249.461 385.799 249.461 386.928V393H246.381V380.812H249.461V382.704ZM256.838 379.36C256.295 379.36 255.84 379.191 255.474 378.854C255.122 378.502 254.946 378.069 254.946 377.556C254.946 377.043 255.122 376.617 255.474 376.28C255.84 375.928 256.295 375.752 256.838 375.752C257.38 375.752 257.828 375.928 258.18 376.28C258.546 376.617 258.73 377.043 258.73 377.556C258.73 378.069 258.546 378.502 258.18 378.854C257.828 379.191 257.38 379.36 256.838 379.36ZM258.356 380.812V393H255.276V380.812H258.356ZM268.153 380.636C269.605 380.636 270.778 381.098 271.673 382.022C272.568 382.931 273.015 384.207 273.015 385.85V393H269.935V386.268C269.935 385.3 269.693 384.559 269.209 384.046C268.725 383.518 268.065 383.254 267.229 383.254C266.378 383.254 265.704 383.518 265.205 384.046C264.721 384.559 264.479 385.3 264.479 386.268V393H261.399V380.812H264.479V382.33C264.89 381.802 265.41 381.391 266.041 381.098C266.686 380.79 267.39 380.636 268.153 380.636ZM280.718 380.614C281.627 380.614 282.426 380.797 283.116 381.164C283.805 381.516 284.348 381.978 284.744 382.55V380.812H287.846V393.088C287.846 394.217 287.618 395.222 287.164 396.102C286.709 396.997 286.027 397.701 285.118 398.214C284.208 398.742 283.108 399.006 281.818 399.006C280.087 399.006 278.664 398.603 277.55 397.796C276.45 396.989 275.826 395.889 275.68 394.496H278.738C278.899 395.053 279.244 395.493 279.772 395.816C280.314 396.153 280.967 396.322 281.73 396.322C282.624 396.322 283.35 396.051 283.908 395.508C284.465 394.98 284.744 394.173 284.744 393.088V391.196C284.348 391.768 283.798 392.245 283.094 392.626C282.404 393.007 281.612 393.198 280.718 393.198C279.691 393.198 278.752 392.934 277.902 392.406C277.051 391.878 276.376 391.137 275.878 390.184C275.394 389.216 275.152 388.109 275.152 386.862C275.152 385.63 275.394 384.537 275.878 383.584C276.376 382.631 277.044 381.897 277.88 381.384C278.73 380.871 279.676 380.614 280.718 380.614ZM284.744 386.906C284.744 386.158 284.597 385.52 284.304 384.992C284.01 384.449 283.614 384.039 283.116 383.76C282.617 383.467 282.082 383.32 281.51 383.32C280.938 383.32 280.41 383.459 279.926 383.738C279.442 384.017 279.046 384.427 278.738 384.97C278.444 385.498 278.298 386.129 278.298 386.862C278.298 387.595 278.444 388.241 278.738 388.798C279.046 389.341 279.442 389.759 279.926 390.052C280.424 390.345 280.952 390.492 281.51 390.492C282.082 390.492 282.617 390.353 283.116 390.074C283.614 389.781 284.01 389.37 284.304 388.842C284.597 388.299 284.744 387.654 284.744 386.906ZM142.582 416.342H140.448V426H137.324V416.342H135.938V413.812H137.324V413.196C137.324 411.7 137.749 410.6 138.6 409.896C139.45 409.192 140.734 408.862 142.45 408.906V411.502C141.702 411.487 141.181 411.612 140.888 411.876C140.594 412.14 140.448 412.617 140.448 413.306V413.812H142.582V416.342ZM149.99 426.198C148.816 426.198 147.76 425.941 146.822 425.428C145.883 424.9 145.142 424.159 144.6 423.206C144.072 422.253 143.808 421.153 143.808 419.906C143.808 418.659 144.079 417.559 144.622 416.606C145.179 415.653 145.934 414.919 146.888 414.406C147.841 413.878 148.904 413.614 150.078 413.614C151.251 413.614 152.314 413.878 153.268 414.406C154.221 414.919 154.969 415.653 155.512 416.606C156.069 417.559 156.348 418.659 156.348 419.906C156.348 421.153 156.062 422.253 155.49 423.206C154.932 424.159 154.17 424.9 153.202 425.428C152.248 425.941 151.178 426.198 149.99 426.198ZM149.99 423.514C150.547 423.514 151.068 423.382 151.552 423.118C152.05 422.839 152.446 422.429 152.74 421.886C153.033 421.343 153.18 420.683 153.18 419.906C153.18 418.747 152.872 417.86 152.256 417.244C151.654 416.613 150.914 416.298 150.034 416.298C149.154 416.298 148.413 416.613 147.812 417.244C147.225 417.86 146.932 418.747 146.932 419.906C146.932 421.065 147.218 421.959 147.79 422.59C148.376 423.206 149.11 423.514 149.99 423.514ZM161.687 415.704C162.083 415.059 162.596 414.553 163.227 414.186C163.872 413.819 164.606 413.636 165.427 413.636V416.87H164.613C163.645 416.87 162.912 417.097 162.413 417.552C161.929 418.007 161.687 418.799 161.687 419.928V426H158.607V413.812H161.687V415.704ZM175.824 415.572C176.22 415.015 176.762 414.553 177.452 414.186C178.156 413.805 178.955 413.614 179.85 413.614C180.891 413.614 181.83 413.871 182.666 414.384C183.516 414.897 184.184 415.631 184.668 416.584C185.166 417.523 185.416 418.615 185.416 419.862C185.416 421.109 185.166 422.216 184.668 423.184C184.184 424.137 183.516 424.878 182.666 425.406C181.83 425.934 180.891 426.198 179.85 426.198C178.955 426.198 178.163 426.015 177.474 425.648C176.799 425.281 176.249 424.819 175.824 424.262V431.808H172.744V413.812H175.824V415.572ZM182.27 419.862C182.27 419.129 182.116 418.498 181.808 417.97C181.514 417.427 181.118 417.017 180.62 416.738C180.136 416.459 179.608 416.32 179.036 416.32C178.478 416.32 177.95 416.467 177.452 416.76C176.968 417.039 176.572 417.449 176.264 417.992C175.97 418.535 175.824 419.173 175.824 419.906C175.824 420.639 175.97 421.277 176.264 421.82C176.572 422.363 176.968 422.781 177.452 423.074C177.95 423.353 178.478 423.492 179.036 423.492C179.608 423.492 180.136 423.345 180.62 423.052C181.118 422.759 181.514 422.341 181.808 421.798C182.116 421.255 182.27 420.61 182.27 419.862ZM190.734 415.704C191.13 415.059 191.643 414.553 192.274 414.186C192.919 413.819 193.652 413.636 194.474 413.636V416.87H193.66C192.692 416.87 191.958 417.097 191.46 417.552C190.976 418.007 190.734 418.799 190.734 419.928V426H187.654V413.812H190.734V415.704ZM201.96 426.198C200.787 426.198 199.731 425.941 198.792 425.428C197.854 424.9 197.113 424.159 196.57 423.206C196.042 422.253 195.778 421.153 195.778 419.906C195.778 418.659 196.05 417.559 196.592 416.606C197.15 415.653 197.905 414.919 198.858 414.406C199.812 413.878 200.875 413.614 202.048 413.614C203.222 413.614 204.285 413.878 205.238 414.406C206.192 414.919 206.94 415.653 207.482 416.606C208.04 417.559 208.318 418.659 208.318 419.906C208.318 421.153 208.032 422.253 207.46 423.206C206.903 424.159 206.14 424.9 205.172 425.428C204.219 425.941 203.148 426.198 201.96 426.198ZM201.96 423.514C202.518 423.514 203.038 423.382 203.522 423.118C204.021 422.839 204.417 422.429 204.71 421.886C205.004 421.343 205.15 420.683 205.15 419.906C205.15 418.747 204.842 417.86 204.226 417.244C203.625 416.613 202.884 416.298 202.004 416.298C201.124 416.298 200.384 416.613 199.782 417.244C199.196 417.86 198.902 418.747 198.902 419.906C198.902 421.065 199.188 421.959 199.76 422.59C200.347 423.206 201.08 423.514 201.96 423.514ZM212.14 412.36C211.582 412.36 211.12 412.191 210.754 411.854C210.402 411.502 210.226 411.069 210.226 410.556C210.226 410.043 210.402 409.617 210.754 409.28C211.12 408.928 211.582 408.752 212.14 408.752C212.682 408.752 213.13 408.928 213.482 409.28C213.834 409.617 214.01 410.043 214.01 410.556C214.01 411.069 213.834 411.502 213.482 411.854C213.13 412.191 212.682 412.36 212.14 412.36ZM213.658 428.002C213.658 429.351 213.32 430.319 212.646 430.906C211.986 431.507 211.032 431.808 209.786 431.808H208.422V429.19H209.302C209.771 429.19 210.101 429.095 210.292 428.904C210.482 428.728 210.578 428.435 210.578 428.024V413.812H213.658V428.002ZM228.031 419.642C228.031 420.082 228.001 420.478 227.943 420.83H219.033C219.106 421.71 219.414 422.399 219.957 422.898C220.499 423.397 221.167 423.646 221.959 423.646C223.103 423.646 223.917 423.155 224.401 422.172H227.723C227.371 423.345 226.696 424.313 225.699 425.076C224.701 425.824 223.477 426.198 222.025 426.198C220.851 426.198 219.795 425.941 218.857 425.428C217.933 424.9 217.207 424.159 216.679 423.206C216.165 422.253 215.909 421.153 215.909 419.906C215.909 418.645 216.165 417.537 216.679 416.584C217.192 415.631 217.911 414.897 218.835 414.384C219.759 413.871 220.822 413.614 222.025 413.614C223.183 413.614 224.217 413.863 225.127 414.362C226.051 414.861 226.762 415.572 227.261 416.496C227.774 417.405 228.031 418.454 228.031 419.642ZM224.841 418.762C224.826 417.97 224.54 417.339 223.983 416.87C223.425 416.386 222.743 416.144 221.937 416.144C221.174 416.144 220.529 416.379 220.001 416.848C219.487 417.303 219.172 417.941 219.055 418.762H224.841ZM229.487 419.906C229.487 418.645 229.743 417.545 230.257 416.606C230.77 415.653 231.481 414.919 232.391 414.406C233.3 413.878 234.341 413.614 235.515 413.614C237.025 413.614 238.272 413.995 239.255 414.758C240.252 415.506 240.919 416.562 241.257 417.926H237.935C237.759 417.398 237.458 416.987 237.033 416.694C236.622 416.386 236.109 416.232 235.493 416.232C234.613 416.232 233.916 416.555 233.403 417.2C232.889 417.831 232.633 418.733 232.633 419.906C232.633 421.065 232.889 421.967 233.403 422.612C233.916 423.243 234.613 423.558 235.493 423.558C236.739 423.558 237.553 423.001 237.935 421.886H241.257C240.919 423.206 240.252 424.255 239.255 425.032C238.257 425.809 237.011 426.198 235.515 426.198C234.341 426.198 233.3 425.941 232.391 425.428C231.481 424.9 230.77 424.167 230.257 423.228C229.743 422.275 229.487 421.167 229.487 419.906ZM247.099 416.342V422.238C247.099 422.649 247.194 422.949 247.385 423.14C247.59 423.316 247.928 423.404 248.397 423.404H249.827V426H247.891C245.295 426 243.997 424.739 243.997 422.216V416.342H242.545V413.812H243.997V410.798H247.099V413.812H249.827V416.342H247.099Z" fill="black"/>
</svg>
