<svg width="50" height="50" viewBox="0 0 50 50" fill="none" xmlns="http://www.w3.org/2000/svg">
<g id="Group 7">
<path id="Rectangle 3" d="M0 11.9048C0 5.32994 5.32994 0 11.9048 0H38.0952C44.6701 0 50 5.32994 50 11.9048V38.0952C50 44.6701 44.6701 50 38.0952 50H11.9048C5.32994 50 0 44.6701 0 38.0952V11.9048Z" fill="#FF0055"/>
<path id="Rectangle 3 (Stroke)" fill-rule="evenodd" clip-rule="evenodd" d="M38.0952 1.42857H11.9048C6.11892 1.42857 1.42857 6.11892 1.42857 11.9048V38.0952C1.42857 43.8811 6.11892 48.5714 11.9048 48.5714H38.0952C43.8811 48.5714 48.5714 43.8811 48.5714 38.0952V11.9048C48.5714 6.11892 43.8811 1.42857 38.0952 1.42857ZM11.9048 0C5.32994 0 0 5.32994 0 11.9048V38.0952C0 44.6701 5.32994 50 11.9048 50H38.0952C44.6701 50 50 44.6701 50 38.0952V11.9048C50 5.32994 44.6701 0 38.0952 0H11.9048Z" fill="#FF0055"/>
<path id="Vector 4 (Stroke)" opacity="0.5" fill-rule="evenodd" clip-rule="evenodd" d="M30.9524 14.3089C30.9524 15.8996 29.6452 17.1892 28.0327 17.1892L26.8618 17.1892C22.0892 17.1892 18.2202 21.006 18.2202 25.7143C18.2202 30.4226 22.0892 34.2394 26.8618 34.2394L27.3791 34.2394C28.9915 34.2394 30.2987 35.5289 30.2987 37.1197C30.2987 38.7104 28.9915 40 27.3791 40L26.8618 40C18.8643 40 12.381 33.6041 12.381 25.7143C12.381 17.8245 18.8643 11.4286 26.8618 11.4286L28.0328 11.4286C29.6452 11.4286 30.9524 12.7181 30.9524 14.3089Z" fill="white"/>
<path id="Vector 5 (Stroke)" opacity="0.7" fill-rule="evenodd" clip-rule="evenodd" d="M32.8571 14.3089C32.8571 15.8996 31.5499 17.1892 29.9375 17.1892L28.7665 17.1892C23.9939 17.1892 20.125 21.006 20.125 25.7143C20.125 30.4226 23.9939 34.2394 28.7665 34.2394L29.2838 34.2394C30.8963 34.2394 32.2034 35.5289 32.2034 37.1197C32.2034 38.7104 30.8963 40 29.2838 40L28.7665 40C20.769 40 14.2857 33.6041 14.2857 25.7143C14.2857 17.8245 20.769 11.4286 28.7665 11.4286L29.9375 11.4286C31.55 11.4286 32.8571 12.7181 32.8571 14.3089Z" fill="white"/>
<path id="Vector 6 (Stroke)" fill-rule="evenodd" clip-rule="evenodd" d="M34.7619 14.3089C34.7619 15.8996 33.4882 17.1892 31.9171 17.1892L30.7762 17.1892C26.126 17.1892 22.3562 21.006 22.3562 25.7143C22.3562 30.4226 26.126 34.2394 30.7762 34.2394L31.2802 34.2394C32.8513 34.2394 34.125 35.5289 34.125 37.1197C34.125 38.7104 32.8513 40 31.2802 40L30.7762 40C22.9837 40 16.6667 33.6041 16.6667 25.7143C16.6667 17.8245 22.9837 11.4286 30.7762 11.4286L31.9171 11.4286C33.4883 11.4286 34.7619 12.7181 34.7619 14.3089Z" fill="white"/>
</g>
</svg>
