<svg width="223" height="187" viewBox="0 0 223 187" fill="none" xmlns="http://www.w3.org/2000/svg">
<path d="M77.3339 150.034L31.5179 186.976H34.0979L87.012 150.034H77.3339Z" fill="#C7C7C7"/>
<path d="M81.636 150.034L58.998 186.976H61.578L89.3281 150.034H81.636Z" fill="#C7C7C7"/>
<path d="M92.7359 150.034L115.374 186.976H112.794L85.0439 150.034H92.7359Z" fill="#C7C7C7"/>
<path d="M96.69 150.034L142.5 186.976H139.92L87.012 150.034H96.69Z" fill="#C7C7C7"/>
<path d="M173.154 136.486V125.68L110.238 123.094L77.01 34.372H0.869995L27.81 136.486L92.172 154.552H96.204L173.154 136.486Z" fill="#455A64"/>
<path d="M0.869995 34.372H9.582L37.65 127.45L94.596 143.584L173.154 125.68V136.486L96.204 154.552H92.172L27.81 136.486L0.869995 34.372Z" fill="#37474F"/>
<path d="M219.42 186.604C217.386 186.652 164.742 170.404 163.128 168.49C162.954 168.28 163.776 160.486 165.138 154.3C165.198 154 146.436 129.424 146.436 129.424L180.354 116.224L196.584 149.824L200.784 158.566C200.784 158.566 218.346 176.224 219.906 178.486C221.466 180.748 221.448 186.556 219.42 186.604Z" fill="#EBEBEB"/>
<path d="M220.902 186.904C218.784 186.958 163.824 170.182 162.132 168.214C161.484 167.476 162.468 164.074 165.132 154.3L201.132 158.638C201.132 158.638 219.732 176.098 221.352 178.438C222.972 180.778 223.014 186.844 220.902 186.904Z" fill="#FF0055"/>
<path d="M220.8 184.462C211.656 181.426 174.486 170.062 165.216 167.722C165.144 167.722 165.126 167.752 165.216 167.782C174.216 170.992 211.476 182.08 220.776 184.582C220.932 184.666 220.974 184.528 220.8 184.462Z" fill="#263238"/>
<path d="M218.46 175.396C217.444 175.057 216.368 174.932 215.301 175.031C214.234 175.129 213.199 175.447 212.262 175.966C210.566 176.884 209.29 178.421 208.698 180.256C208.698 180.31 208.788 180.346 208.812 180.292C210.438 176.842 214.686 174.676 218.412 175.492C218.423 175.492 218.434 175.489 218.444 175.483C218.453 175.477 218.461 175.469 218.466 175.459C218.471 175.449 218.473 175.438 218.472 175.427C218.471 175.416 218.467 175.405 218.46 175.396Z" fill="#263238"/>
<path d="M204.888 162.274C201.216 161.074 196.548 161.074 193.332 163.408C193.206 163.498 193.332 163.672 193.464 163.648C197.205 162.944 201.011 162.641 204.816 162.742C204.873 162.741 204.928 162.72 204.97 162.683C205.013 162.646 205.042 162.595 205.05 162.539C205.059 162.482 205.047 162.425 205.018 162.376C204.988 162.328 204.942 162.292 204.888 162.274Z" fill="#263238"/>
<path d="M207.396 164.248C203.724 163.048 199.056 163.048 195.84 165.388C195.714 165.478 195.84 165.652 195.972 165.628C199.713 164.922 203.519 164.618 207.324 164.722C207.385 164.728 207.447 164.711 207.495 164.673C207.544 164.635 207.577 164.58 207.586 164.519C207.595 164.458 207.581 164.396 207.545 164.346C207.51 164.295 207.456 164.26 207.396 164.248Z" fill="#263238"/>
<path d="M209.904 166.228C206.232 165.028 201.564 165.028 198.348 167.368C198.222 167.458 198.348 167.632 198.48 167.608C202.221 166.901 206.026 166.598 209.832 166.702C209.893 166.708 209.955 166.691 210.003 166.653C210.052 166.615 210.084 166.56 210.094 166.499C210.103 166.438 210.088 166.376 210.053 166.326C210.018 166.275 209.964 166.24 209.904 166.228Z" fill="#263238"/>
<path d="M212.4 168.208C208.728 167.008 204.06 167.008 200.844 169.342C200.718 169.432 200.844 169.612 200.976 169.588C204.717 168.881 208.523 168.578 212.328 168.682C212.389 168.688 212.451 168.671 212.499 168.633C212.548 168.595 212.581 168.54 212.59 168.479C212.599 168.418 212.585 168.356 212.549 168.306C212.514 168.255 212.46 168.22 212.4 168.208Z" fill="#263238"/>
<path d="M211.878 153.646C210.486 151.528 207.678 152.326 206.028 153.58C203.252 155.786 201.104 158.683 199.8 161.98C199.77 162.058 199.8 162.106 199.884 162.124C199.884 162.412 200.124 162.724 200.454 162.622C203.634 161.608 207.162 160.918 209.934 158.956C211.554 157.816 213.198 155.65 211.878 153.646ZM204.96 160.102C203.412 160.642 201.84 161.098 200.31 161.692C201.476 160.02 202.726 158.408 204.054 156.862C204.709 156.124 205.413 155.43 206.16 154.786C207.36 153.814 211.896 151.834 211.038 155.986C210.564 158.236 206.814 159.466 204.96 160.102Z" fill="#263238"/>
<path d="M190.2 160.558C193.26 162.034 196.848 162.13 200.154 162.604C200.496 162.652 200.682 162.298 200.634 162.004C200.65 162 200.665 161.992 200.677 161.981C200.689 161.971 200.699 161.957 200.705 161.942C200.711 161.926 200.713 161.91 200.711 161.893C200.709 161.877 200.703 161.862 200.694 161.848C198.872 158.819 196.288 156.32 193.2 154.6C191.37 153.634 188.466 153.316 187.44 155.632C186.456 157.834 188.436 159.7 190.2 160.558ZM188.61 157.78C187.08 153.856 191.91 155.05 193.224 155.812C194.062 156.325 194.863 156.894 195.624 157.516C197.19 158.82 198.69 160.202 200.118 161.656C198.51 161.326 196.884 161.134 195.264 160.858C193.386 160.534 189.48 159.946 188.634 157.78H188.61Z" fill="#263238"/>
<path d="M198.3 151.414L160.908 156.94C160.908 156.94 140.508 119.89 132.264 110.674C131.802 110.142 131.299 109.649 130.758 109.198C129.906 108.812 128.991 108.585 128.058 108.526C117 107.182 79.794 110.8 54.078 109.126L66.078 93.076L71.4 85.954C100.368 82.654 135.918 70.81 151.956 78.856C169.338 87.586 198.3 151.414 198.3 151.414Z" fill="#263238"/>
<path d="M193.614 145.066C187.26 145.888 189.072 145.564 182.724 146.452C179.616 146.884 164.004 149.026 161.172 149.914C161.156 149.914 161.141 149.92 161.13 149.932C161.118 149.943 161.112 149.958 161.112 149.974C161.112 149.99 161.118 150.005 161.13 150.016C161.141 150.028 161.156 150.034 161.172 150.034C164.136 150.034 179.706 147.58 182.802 147.088C189.132 146.086 187.302 146.308 193.602 145.24C193.615 145.244 193.629 145.246 193.642 145.244C193.656 145.242 193.669 145.237 193.68 145.229C193.692 145.222 193.701 145.211 193.708 145.2C193.715 145.188 193.719 145.174 193.72 145.161C193.721 145.147 193.719 145.133 193.714 145.121C193.708 145.108 193.7 145.097 193.69 145.087C193.68 145.078 193.668 145.072 193.655 145.068C193.641 145.064 193.627 145.064 193.614 145.066Z" fill="#37474F"/>
<path d="M161.1 149.392C156.87 142.318 137.604 107.392 133.77 106.024C130.278 104.77 60.444 106.222 59.412 106.228C59.34 106.228 59.334 106.342 59.412 106.342C67.68 106.24 131.508 106.012 133.332 106.732C137.118 108.226 160.152 148.732 160.722 149.578C160.866 149.8 161.244 149.632 161.1 149.392Z" fill="#37474F"/>
<path d="M34.5 94.51C34.5 94.51 32.292 115.6 42.978 126.04C55.764 138.574 140.178 135.412 153.228 131.182C166.278 126.952 166.71 105.856 152.418 100.966C138.822 96.316 78.522 93.64 77.094 93.07C75.666 92.5 71.484 85.828 71.484 85.828L34.5 94.51Z" fill="#263238"/>
<path d="M52.356 93.916C52.356 93.814 52.182 93.85 52.182 93.946C52.1837 96.6783 51.2212 99.3236 49.464 101.416C47.46 103.732 44.508 105.016 41.832 106.378C41.574 106.51 41.772 106.912 42.036 106.834C43.6809 106.326 45.2661 105.642 46.764 104.794C48.137 104.063 49.3458 103.058 50.316 101.842C51.1875 100.735 51.8189 99.4583 52.1701 98.0937C52.5213 96.7291 52.5846 95.3064 52.356 93.916Z" fill="#37474F"/>
<path d="M76.518 91.756C75.918 90.994 75.27 90.268 74.646 89.53C73.176 87.772 71.694 86.014 70.152 84.322C70.002 84.16 69.72 84.388 69.852 84.562C70.89 85.924 71.994 87.238 73.074 88.564L74.748 90.598C75.3326 91.2044 75.8551 91.8677 76.308 92.578C76.716 93.334 76.182 93.976 75.402 94.06C74.7093 94.0763 74.0362 93.8298 73.518 93.37C72.318 92.434 71.34 91.096 70.332 89.956C69.732 89.26 69.09 88.558 68.46 87.874C67.83 87.19 67.074 86.44 66.408 85.714C66.366 85.666 66.282 85.714 66.318 85.78C66.918 86.584 67.44 87.418 68.028 88.222C68.616 89.026 69.228 89.818 69.828 90.622C70.428 91.426 70.986 92.098 71.628 92.812C72.1358 93.443 72.7439 93.9862 73.428 94.42C74.55 95.08 76.488 95.218 77.088 93.772C77.1841 93.4158 77.1819 93.0403 77.0815 92.6852C76.9811 92.3302 76.7864 92.0091 76.518 91.756Z" fill="#37474F"/>
<path d="M151.44 131.26C146.934 131.344 142.44 131.608 137.934 131.704C133.428 131.8 129 131.824 124.53 131.782C115.558 131.698 106.594 131.35 97.6379 130.738C88.5899 130.138 78.8339 129.208 69.8519 127.966C65.5499 127.366 61.1939 126.874 56.9399 125.962C53.113 125.237 49.5736 123.432 46.7399 120.76C40.9199 115.114 38.6579 106.816 37.7399 98.89C37.6139 97.822 37.5119 96.76 37.4279 95.692C37.4279 95.62 37.3079 95.62 37.3139 95.692C37.8419 103.822 39.1139 112.3 44.2199 118.834C46.3773 121.686 49.2503 123.918 52.5479 125.302C56.5739 126.916 61.0379 127.294 65.2859 127.87C74.2859 129.07 84.1019 130.036 93.1739 130.744C102.246 131.452 111.462 131.89 120.618 132.028C129.774 132.166 138.936 132.028 148.08 131.584C149.202 131.53 150.312 131.464 151.428 131.362C151.5 131.362 151.5 131.26 151.44 131.26Z" fill="#37474F"/>
<path d="M163.458 111.586C162.6 108.056 160.448 104.977 157.428 102.958C154.188 100.744 150.312 99.736 146.472 99.178C142.134 98.548 137.736 98.224 133.368 97.804C124.412 96.932 115.448 96.132 106.476 95.404C97.512 94.666 78.204 93.166 77.118 93.124C77.028 93.124 77.004 93.28 77.118 93.292C85.77 94.252 93.648 95.092 102.318 95.866C110.988 96.64 119.718 97.486 128.448 98.35C132.784 98.774 137.122 99.21 141.462 99.658C145.476 100.072 149.61 100.48 153.378 102.058C156.612 103.39 159.522 105.532 161.178 108.658C162.71 111.76 163.164 115.283 162.468 118.672C161.863 121.823 160.411 124.75 158.268 127.138C156.211 129.493 153.469 131.146 150.426 131.866C149.634 132.04 148.68 132.16 147.948 132.31C147.894 132.31 147.834 132.436 147.894 132.436C154.374 132.604 160.368 127.87 162.708 121.948C164.012 118.652 164.273 115.035 163.458 111.586Z" fill="#37474F"/>
<path d="M59.694 42.688C63.984 59.488 72.51 79.576 76.014 82.78C80.454 86.836 107.604 92.158 109.014 92.296C111.366 92.53 116.214 68.296 114.024 68.38C108.216 68.506 90.324 66.688 89.04 65.434C87.756 64.18 78.618 53.206 69.24 40.834C62.802 32.32 57.036 32.26 59.694 42.688Z" fill="#EB9481"/>
<path d="M106.836 91.294C107.226 91.48 112.836 94.12 116.25 95.026C118.812 95.704 126.246 97.456 127.272 94.708C127.968 92.836 123.72 91.288 120.744 90.13C119.172 89.53 117.216 87.94 117.654 86.932C118.41 85.132 122.454 86.824 125.124 88.288C130.284 91.126 137.19 96.28 140.238 93.628C141.384 92.62 139.98 90.88 137.94 89.182C141.228 91.138 144.726 92.722 146.046 91.654C146.802 91.054 146.82 90.238 146.37 89.326C147.378 89.632 148.26 89.542 148.86 88.876C149.886 87.754 149.334 86.14 148.14 84.496C148.337 84.4709 148.526 84.3989 148.69 84.2862C148.853 84.1735 148.988 84.0233 149.082 83.848C151.23 80.392 139.836 70.9 135.954 70.084C124.554 67.684 112.584 68.446 112.584 68.446C108.21 72.118 106.8 91.282 106.836 91.294Z" fill="#EB9481"/>
<path d="M123.276 80.44C125.991 80.8065 128.597 81.7474 130.92 83.2C133.848 85.03 135.81 87.208 138.276 89.392C138.342 89.452 138.276 89.554 138.192 89.494C136.992 88.456 132.15 84.568 130.896 83.692C128.629 82.0666 126.021 80.981 123.27 80.518C123.27 80.518 123.252 80.434 123.276 80.44Z" fill="#263238"/>
<path d="M125.28 75.568C128.28 76.312 131.358 77.068 134.166 78.412C137.232 79.882 139.662 82.342 142.056 84.712C143.488 86.136 144.888 87.588 146.256 89.068C146.316 89.134 146.256 89.236 146.172 89.17C143.74 86.73 141.24 84.358 138.672 82.054C136.3 79.9179 133.532 78.2687 130.524 77.2C128.802 76.6 127.032 76.114 125.268 75.64L125.28 75.568Z" fill="#263238"/>
<path d="M128.364 71.278C131.28 71.806 133.818 72.256 136.428 73.744C139.872 75.724 143.238 79.108 144.42 80.308C145.722 81.634 146.982 83.008 148.218 84.394C148.272 84.448 148.17 84.538 148.122 84.484C145.291 81.4425 142.266 78.5866 139.068 75.934C137.561 74.6501 135.865 73.6058 134.04 72.838C132.196 72.164 130.297 71.6501 128.364 71.302C128.364 71.302 128.352 71.278 128.364 71.278Z" fill="#263238"/>
<path d="M112.146 66.754L103.986 94.954C103.986 94.954 79.92 88.708 75.438 84.1C70.956 79.492 62.31 55.36 59.652 43.624C56.994 31.888 62.97 32.044 68.652 39.346C74.334 46.648 88.38 64.336 89.154 64.708C89.928 65.08 112.146 66.754 112.146 66.754Z" fill="#FF0055"/>
<path d="M101.4 82.564C102.39 79.246 103.41 75.928 104.274 72.568C104.766 70.66 105.27 68.752 105.744 66.838C105.744 66.766 105.642 66.724 105.618 66.796C104.49 70.09 103.368 73.396 102.396 76.744C101.424 80.092 100.428 83.398 99.498 86.746C98.97 88.642 98.502 90.556 98.094 92.488C98.094 92.524 98.148 92.548 98.16 92.488C99.39 89.248 100.398 85.912 101.4 82.564Z" fill="#263238"/>
<path opacity="0.1" d="M100.518 94C93.684 92.074 78.852 87.598 75.432 84.088C70.956 79.48 62.31 55.348 59.652 43.618C58.386 37.984 59.094 35.08 60.81 34.408C60.9975 34.4977 61.1798 34.5978 61.356 34.708C70.2 46.846 88.524 75.832 100.518 94Z" fill="black"/>
<path d="M32.07 98.158C32.202 98.296 83.07 87.148 83.55 86.56C84.21 85.726 75.114 47.47 65.55 36.052C63.15 33.196 55.512 33.394 52.092 36.274C35.13 50.554 31.59 97.666 32.07 98.158Z" fill="#FF0055"/>
<path d="M48.114 39.01C37.968 46.81 11.232 78.37 16.818 85.852C22.404 93.334 60.72 90.85 71.898 87.652C75.222 86.692 66.69 65.536 63.138 64.492C60.186 63.616 43.602 68.122 43.302 67.156C42.96 66.07 46.638 59.08 52.56 46.294C59.4 31.534 52.596 35.566 48.114 39.01Z" fill="#EB9481"/>
<path d="M78.7319 62.002C86.1239 62.188 87.9959 63.376 94.3319 60.202C98.4779 58.132 101.58 59.896 98.7599 63.802C94.1519 70.198 84.5579 71.962 81.0599 71.602L78.7319 62.002Z" fill="#EB9481"/>
<path d="M58.386 65.8C58.386 65.8 67.254 62.632 75.15 62.056C80.61 61.66 92.592 62.11 101.904 75.55C104.112 78.736 104.994 84.838 99.504 80.95C95.604 78.184 93.96 75.25 91.398 74.056C91.398 74.056 91.602 81.958 88.326 84.046C85.4582 85.8698 82.4647 87.4879 79.368 88.888C78.9836 88.3803 78.6309 87.8493 78.312 87.298C78.312 87.298 75.066 88.954 69.702 87.538L58.386 65.8Z" fill="#EB9481"/>
<path d="M80.4 62.488C82.692 64.216 87.498 67.954 90.36 72.376C93.54 77.284 98.346 87.61 94.692 89.92C92.016 91.612 89.838 87.832 89.838 87.832C89.838 87.832 90.924 92.518 88.17 93.52C85.662 94.432 84.15 91.408 84.15 91.408C84.15 91.408 84.318 94.366 81.75 94.78C78.642 95.278 78.798 89.002 75.21 86.782C74.4 86.284 80.4 62.488 80.4 62.488Z" fill="#EB9481"/>
<path d="M84.63 74.872C86.526 76.846 89.67 82.432 89.916 87.73C89.916 87.844 89.838 87.916 89.808 87.808C88.5969 83.3105 86.8441 78.9768 84.588 74.902L84.63 74.872Z" fill="#263238"/>
<path d="M79.7639 78.226C81.2219 80.098 84.2099 86.026 84.2759 91.372C84.2759 91.498 84.1859 91.558 84.1619 91.45C83.1863 86.8954 81.6946 82.4668 79.7159 78.25C79.7159 78.25 79.7459 78.202 79.7639 78.226Z" fill="#263238"/>
<path d="M91.3979 73.984C93.6419 75.07 94.9979 76.474 96.7379 78.184C97.5986 79.0339 98.506 79.8352 99.4559 80.584C100.326 81.262 101.616 82.282 102.768 81.634C103.41 81.28 103.542 80.434 103.524 79.786C103.393 78.7814 103.106 77.8036 102.672 76.888C102.672 76.888 102.714 76.828 102.732 76.888C103.159 77.7254 103.501 78.6039 103.752 79.51C103.909 80.1291 103.877 80.7808 103.662 81.382C103.098 82.624 101.538 82.54 100.512 81.982C99.9057 81.6393 99.3349 81.2373 98.8079 80.782C98.2919 80.362 97.7939 79.918 97.3139 79.456C96.3179 78.514 95.3759 77.518 94.3979 76.564C93.4358 75.6609 92.4178 74.8192 91.3499 74.044C91.3139 74.026 91.3559 73.966 91.3979 73.984Z" fill="#263238"/>
<path d="M94.962 83.086C93.9582 79.9936 92.7557 76.9693 91.362 74.032C91.3596 74.0284 91.358 74.0245 91.3572 74.0203C91.3563 74.0161 91.3563 74.0118 91.3572 74.0076C91.358 74.0034 91.3597 73.9995 91.362 73.9959C91.3644 73.9924 91.3675 73.9893 91.371 73.987C91.3746 73.9846 91.3785 73.983 91.3827 73.9822C91.3869 73.9813 91.3912 73.9813 91.3954 73.9822C91.3995 73.983 91.4035 73.9847 91.4071 73.987C91.4106 73.9894 91.4136 73.9924 91.416 73.996C92.964 76.036 95.148 81.148 95.616 82.744C96.084 84.34 96.528 86.314 96.258 87.946C95.85 90.406 94.14 90.604 93.516 90.622C92.7795 90.6346 92.0612 90.393 91.482 89.938C90.8091 89.3558 90.2637 88.6408 89.88 87.838C89.88 87.802 89.91 87.76 89.934 87.802C90.624 88.912 91.884 90.1 93.252 90.148C93.5519 90.1665 93.8526 90.1257 94.1367 90.0279C94.4209 89.9301 94.683 89.7772 94.908 89.578C95.3706 89.0451 95.6262 88.3637 95.628 87.658C95.6682 86.1072 95.443 84.5609 94.962 83.086Z" fill="#263238"/>
<path d="M58.386 64.714L66.084 91.504C66.084 91.504 18.186 94.24 15.534 85.54C12.882 76.84 36.018 48.34 45.618 40.54C56.742 31.474 57.336 35.278 53.718 44.35C49.926 53.848 43.398 67.408 43.398 67.408L58.386 64.714Z" fill="#FF0055"/>
<path d="M28.266 71.68C30.6575 70.5533 33.1281 69.6028 35.658 68.836C38.1594 68.088 40.7122 67.5245 43.296 67.15C44.766 66.916 46.248 66.76 47.724 66.592C47.7336 66.592 47.7427 66.5958 47.7495 66.6025C47.7562 66.6093 47.76 66.6185 47.76 66.628C47.76 66.6375 47.7562 66.6467 47.7495 66.6535C47.7427 66.6602 47.7336 66.664 47.724 66.664C45.1288 67.0518 42.5585 67.5908 40.026 68.278C37.5 68.938 34.998 69.64 32.496 70.39C31.086 70.816 29.694 71.308 28.296 71.776C28.2892 71.7815 28.2811 71.7852 28.2724 71.7869C28.2638 71.7886 28.2549 71.7881 28.2465 71.7855C28.2381 71.783 28.2304 71.7784 28.2242 71.7722C28.218 71.766 28.2133 71.7584 28.2107 71.75C28.2081 71.7416 28.2076 71.7327 28.2092 71.724C28.2108 71.7154 28.2144 71.7073 28.2199 71.7004C28.2253 71.6935 28.2324 71.688 28.2404 71.6845C28.2485 71.6809 28.2573 71.6794 28.266 71.68Z" fill="#263238"/>
<path d="M58.278 64.6C58.032 64.6 44.712 66.7 44.268 66.826C44.352 66.646 47.73 60.304 48.234 59.38C48.282 59.284 48.324 59.194 48.378 59.098C48.678 58.696 48.978 58.3 49.272 57.898L50.364 56.308L49.2 57.838C49.02 58.078 48.852 58.324 48.684 58.564C49.02 57.912 49.35 57.252 49.674 56.584C50.202 55.522 50.694 54.454 51.18 53.374H51.126C50.13 55.222 49.08 57.04 48.078 58.882C47.076 60.724 43.278 67.504 43.308 67.504C43.338 67.504 58.032 64.894 58.308 64.828C58.3383 64.824 58.3657 64.8082 58.3842 64.784C58.4028 64.7598 58.411 64.7292 58.407 64.699C58.4031 64.6688 58.3872 64.6414 58.363 64.6228C58.3388 64.6042 58.3083 64.596 58.278 64.6Z" fill="#263238"/>
<path d="M56.448 80.968C55.608 77.968 54.786 74.968 53.838 72.028C53.298 70.348 52.764 68.668 52.206 66.994C52.206 66.928 52.074 66.952 52.092 66.994C52.818 70.03 53.55 73.066 54.414 76.066C55.278 79.066 56.106 82.066 57.006 85.012C57.516 86.698 58.08 88.366 58.692 90.028C58.692 90.036 58.6952 90.0436 58.7008 90.0492C58.7064 90.0548 58.7141 90.058 58.722 90.058C58.73 90.058 58.7376 90.0548 58.7432 90.0492C58.7489 90.0436 58.752 90.036 58.752 90.028C58.128 86.974 57.294 83.974 56.448 80.968Z" fill="#263238"/>
<path d="M66.6 91.996C66.264 91.156 65.862 89.956 65.49 89.128C65.394 88.912 65.232 88.924 65.304 89.128C65.538 89.878 65.7 90.706 65.904 91.474C65.232 91.474 64.566 91.504 63.894 91.534L61.572 91.636C60.052 91.696 58.534 91.74 57.018 91.768C53.938 91.824 50.864 91.824 47.796 91.768C41.6456 91.6535 35.5052 91.2189 29.4 90.466C27.69 90.25 25.98 89.998 24.288 89.692C22.6063 89.4142 20.9401 89.0498 19.296 88.6C19.254 88.6 19.23 88.666 19.296 88.678C20.6855 89.2209 22.116 89.6523 23.574 89.968C25.098 90.298 26.64 90.568 28.182 90.826C31.26 91.3 34.356 91.606 37.458 91.834C43.614 92.278 49.78 92.464 55.956 92.392C57.684 92.392 59.412 92.332 61.14 92.278C62.01 92.248 62.886 92.218 63.756 92.17C64.626 92.122 66.672 92.14 66.6 91.996Z" fill="#263238"/>
<path d="M131.22 95.518H69.936V97.99H131.22V95.518Z" fill="#455A64"/>
<path d="M103.848 95.518H69.936V97.99H103.848V95.518Z" fill="#A6A6A6"/>
<path d="M102.816 97.99H156.528L164.118 61.51H110.406L102.816 97.99Z" fill="#A6A6A6"/>
<path d="M105.252 97.99H158.964L166.554 61.51H112.842L105.252 97.99Z" fill="#C7C7C7"/>
<path d="M132.324 80.566C132.26 81.02 132.296 81.4824 132.429 81.9212C132.562 82.3599 132.789 82.7646 133.093 83.107C133.398 83.4495 133.774 83.7215 134.194 83.9044C134.615 84.0873 135.07 84.1765 135.528 84.166C136.511 84.1449 137.453 83.7687 138.18 83.1069C138.907 82.4451 139.369 81.5425 139.482 80.566C139.546 80.112 139.51 79.6496 139.377 79.2108C139.244 78.7721 139.017 78.3674 138.713 78.025C138.408 77.6825 138.032 77.4104 137.612 77.2276C137.191 77.0447 136.736 76.9555 136.278 76.966C135.296 76.9883 134.354 77.3649 133.628 78.0265C132.901 78.6881 132.438 79.59 132.324 80.566Z" fill="#EBEBEB"/>
<path d="M61.6741 48.286C61.6741 48.286 52.7161 39.4 46.8601 39.532L41.8621 43.9C41.8621 43.9 40.2241 44.422 39.7321 43.384C38.5321 40.816 38.3041 34.636 43.6561 30.67C48.5521 27.034 56.5201 27.376 63.1561 29.182C69.5281 30.916 75.0301 35.182 73.0381 39.346C71.0461 43.51 61.6741 48.286 61.6741 48.286Z" fill="#FF0055"/>
<path opacity="0.1" d="M62.328 46.336C62.328 46.336 69.696 41.17 70.476 38.068C71.256 34.966 65.076 31.96 61.074 30.766C54.888 28.918 50.658 29.284 47.154 32.566C43.65 35.848 62.328 46.336 62.328 46.336Z" fill="black"/>
<path d="M62.328 46.336C62.328 46.336 55.2 34 46.158 32.734L46.86 39.532C46.86 39.532 52.26 39.592 61.674 48.286L62.328 46.336Z" fill="#FF0055"/>
<path d="M44.4 39.634C46.0473 39.5147 47.7009 39.7521 49.248 40.33C50.7999 40.86 52.2856 41.5666 53.676 42.436C55.0768 43.2906 56.4198 44.2366 57.696 45.268L59.574 46.87L61.374 48.556L61.578 48.748L61.806 48.628C63.5026 47.7756 65.1385 46.8073 66.702 45.73C67.4902 45.2024 68.2456 44.6273 68.964 44.008C69.6897 43.3974 70.3547 42.7183 70.95 41.98C69.5727 43.2548 68.0573 44.3717 66.432 45.31C65.634 45.796 64.812 46.252 63.984 46.684C63.156 47.116 62.322 47.554 61.482 47.944L61.908 48.022L60.108 46.276C59.508 45.718 58.842 45.178 58.206 44.638C57.57 44.098 56.868 43.618 56.178 43.138C55.488 42.658 54.78 42.208 54.03 41.818C52.5694 40.977 51.0066 40.3277 49.38 39.886C48.978 39.766 48.558 39.694 48.18 39.604C47.802 39.514 47.346 39.484 46.926 39.46C46.0802 39.3758 45.2263 39.4346 44.4 39.634Z" fill="#263238"/>
<path d="M41.8619 43.9C43.7025 42.6567 45.3814 41.1895 46.8599 39.532C45.0231 40.78 43.3447 42.2468 41.8619 43.9Z" fill="#263238"/>
<path d="M58.6679 44.122C58.1375 46.9442 57.8505 49.8067 57.8099 52.678C57.7619 54.682 58.5359 61.87 60.7619 61.606C62.9879 61.342 59.3639 56.71 58.7279 52.924C58.0919 49.138 59.1059 46.354 59.2379 44.086L58.6679 44.122Z" fill="#FF0055"/>
<g opacity="0.1">
<path d="M58.6679 44.122C58.1375 46.9442 57.8505 49.8067 57.8099 52.678C57.7619 54.682 58.5359 61.87 60.7619 61.606C62.9879 61.342 59.3639 56.71 58.7279 52.924C58.0919 49.138 59.1059 46.354 59.2379 44.086L58.6679 44.122Z" fill="black"/>
</g>
<path d="M66.6 44.518C67.3157 47.2609 67.8687 50.0438 68.256 52.852C68.496 54.652 68.544 61.204 66.51 61.198C64.476 61.192 67.266 56.644 67.452 53.164C67.638 49.684 66.438 46.564 66.084 44.548L66.6 44.518Z" fill="#FF0055"/>
<g opacity="0.1">
<path d="M66.6 44.518C67.3157 47.2609 67.8687 50.0438 68.256 52.852C68.496 54.652 68.544 61.204 66.51 61.198C64.476 61.192 67.266 56.644 67.452 53.164C67.638 49.684 66.438 46.564 66.084 44.548L66.6 44.518Z" fill="black"/>
</g>
<path d="M63.078 44.956C60.756 44.8 56.424 39.952 54.948 36.1C54.852 35.836 55.548 33.298 56.322 30.172C56.76 28.27 57.21 26.146 57.474 24.172L69.414 28.852C68.3745 31.216 67.6289 33.6985 67.194 36.244C67.1673 36.5174 67.1673 36.7926 67.194 37.066C67.194 37.102 67.194 37.15 67.194 37.204C67.2 38.8 66.72 45.19 63.078 44.956Z" fill="#EB9481"/>
<path d="M67.164 37.072C67.1676 37.1179 67.1676 37.1641 67.164 37.21C66.7339 37.2071 66.3046 37.171 65.88 37.102C58.884 35.986 58.332 27.202 58.332 24.502L69.414 28.84C68.3791 31.2135 67.6357 33.7036 67.2 36.256C67.1673 36.5267 67.1553 36.7995 67.164 37.072Z" fill="#263238"/>
<path d="M59.904 8.8C57.402 12.688 56.172 25.6 58.416 29.2C61.674 34.414 68.742 36.826 73.608 32.512C78.324 28.312 79.608 11.47 76.962 8.026C73.026 2.926 63.6 3.046 59.904 8.8Z" fill="#EB9481"/>
<path d="M67.962 18.196C68.3442 18.1374 68.7228 18.0573 69.096 17.956C69.5068 17.924 69.8962 17.7598 70.206 17.488C70.2867 17.3831 70.3305 17.2544 70.3305 17.122C70.3305 16.9896 70.2867 16.8609 70.206 16.756C70.0139 16.5768 69.778 16.4513 69.5221 16.3923C69.2661 16.3333 68.9991 16.3429 68.748 16.42C68.2095 16.4969 67.7204 16.7757 67.38 17.2C67.3081 17.299 67.2666 17.4167 67.2605 17.5389C67.2545 17.6611 67.2841 17.7824 67.3458 17.888C67.4075 17.9936 67.4987 18.079 67.6081 18.1337C67.7175 18.1884 67.8405 18.21 67.962 18.196Z" fill="#263238"/>
<path d="M76.716 19.396C76.3507 19.2707 75.9922 19.1265 75.642 18.964C75.2417 18.8659 74.8851 18.6381 74.628 18.316C74.5667 18.1989 74.5459 18.0648 74.5687 17.9346C74.5915 17.8044 74.6566 17.6854 74.754 17.596C74.9728 17.4504 75.2264 17.3653 75.4888 17.3495C75.7513 17.3337 76.0132 17.3877 76.248 17.506C76.7566 17.6795 77.1837 18.034 77.448 18.502C77.5012 18.6113 77.522 18.7336 77.5079 18.8544C77.4938 18.9752 77.4453 19.0894 77.3683 19.1834C77.2912 19.2775 77.1889 19.3475 77.0732 19.3852C76.9576 19.4229 76.8336 19.4266 76.716 19.396Z" fill="#263238"/>
<path d="M67.2961 28.354C67.4761 28.582 67.6501 28.888 67.9621 28.954C68.2852 28.9907 68.6125 28.9579 68.9221 28.858C68.9221 28.858 68.9701 28.858 68.9221 28.906C68.7752 29.0581 68.5908 29.1688 68.3874 29.2267C68.1841 29.2847 67.969 29.2879 67.7641 29.236C67.5909 29.1694 67.4414 29.0529 67.3345 28.9012C67.2277 28.7495 67.1684 28.5695 67.1641 28.384C67.2001 28.33 67.2661 28.318 67.2961 28.354Z" fill="#263238"/>
<path d="M68.538 25.876C68.7156 26.2451 68.967 26.574 69.2766 26.8423C69.5861 27.1106 69.9474 27.3126 70.338 27.436C70.679 27.5492 71.0348 27.6118 71.394 27.622H71.796C71.843 27.6171 71.8872 27.5977 71.9227 27.5665C71.9582 27.5353 71.9831 27.4939 71.994 27.448C71.997 27.4181 71.997 27.3879 71.994 27.358V27.28C72.096 26.614 72.162 25.594 72.162 25.594C72.39 25.744 73.56 26.464 73.584 26.11C73.782 23.206 73.998 19.972 73.584 17.032C73.584 16.936 73.428 16.942 73.422 17.032C73.128 19.816 73.32 22.636 73.068 25.432C72.6517 25.1674 72.1989 24.9652 71.724 24.832C71.628 24.832 71.634 26.812 71.568 27.106C70.428 27.106 69.624 26.662 68.634 25.768C68.568 25.75 68.496 25.798 68.538 25.876Z" fill="#263238"/>
<path d="M71.046 27.232C70.6185 27.663 70.0876 27.977 69.504 28.144C69.1827 28.2206 68.8458 28.1976 68.538 28.078C67.872 27.808 67.938 27.172 68.13 26.644C68.2382 26.3655 68.377 26.0998 68.544 25.852C69.2099 26.5665 70.0864 27.0499 71.046 27.232Z" fill="#263238"/>
<path d="M69.504 28.144C69.1827 28.2206 68.8458 28.1976 68.538 28.078C67.872 27.808 67.938 27.172 68.13 26.644C68.4946 26.7026 68.8286 26.8826 69.078 27.1549C69.3275 27.4271 69.4775 27.7757 69.504 28.144Z" fill="#FF9ABB"/>
<path d="M69.6659 20.56C69.6659 20.56 69.5939 20.59 69.5879 20.626C69.4799 21.49 69.2099 22.426 68.3879 22.618V22.666C69.3539 22.684 69.7019 21.4 69.6659 20.56Z" fill="#263238"/>
<path d="M69.042 19.546C67.68 19.222 67.134 21.946 68.394 22.27C69.654 22.594 70.2 19.816 69.042 19.546Z" fill="#263238"/>
<path d="M74.682 21.22C74.682 21.22 74.742 21.274 74.736 21.31C74.532 22.15 74.442 23.152 75.15 23.596V23.644C74.22 23.314 74.358 22 74.682 21.22Z" fill="#263238"/>
<path d="M75.63 20.488C77.016 20.668 76.554 23.434 75.27 23.266C73.986 23.098 74.466 20.338 75.63 20.488Z" fill="#263238"/>
<path d="M61.134 17.098C62.934 14.878 62.994 10.12 64.668 9.442C68.268 7.978 72.18 14.716 76.014 16.132C79.728 17.506 81.84 15.568 82.26 12.304C82.68 9.03999 80.856 6.07599 76.902 3.93999C72.816 1.72599 68.244 2.038 65.604 2.632C65.604 2.632 67.092 1.468 66.912 0.867996C66.732 0.267996 64.38 1.066 63.6 1.468C62.9955 1.85735 62.4669 2.35343 62.04 2.932C61.5351 2.5902 60.9834 2.32342 60.402 2.13999C59.5526 1.89948 58.6457 1.96533 57.84 2.326C57.69 2.524 58.98 3.19 59.916 3.58C59.916 3.58 57.288 5.29 56.598 7.318C55.908 9.346 55.572 20.038 56.286 20.416C57.204 20.908 60.414 17.998 61.134 17.098Z" fill="#455A64"/>
<path d="M60.372 3.484C60.408 3.484 60.438 3.538 60.372 3.556C59.1813 3.96321 58.1278 4.69464 57.33 5.668C56.4547 6.88335 55.9203 8.31063 55.782 9.802C55.416 12.658 55.836 15.526 56.076 18.37C56.076 18.454 55.938 18.472 55.926 18.37C55.482 15.37 55.092 12.148 55.608 9.136C56.07 6.586 57.636 4 60.372 3.484Z" fill="#455A64"/>
<path d="M64.878 8.416C66.0579 8.68447 67.1758 9.17521 68.172 9.862C69.0734 10.5834 69.8798 11.416 70.572 12.34C72.27 14.26 74.268 15.988 76.764 16.726C76.764 16.726 76.764 16.786 76.764 16.774C74.424 16.246 72.486 14.788 70.86 13.084C70.1137 12.1453 69.3123 11.2517 68.46 10.408C67.3646 9.61834 66.149 9.01054 64.86 8.608C64.8431 8.59736 64.8294 8.58224 64.8206 8.56432C64.8117 8.54639 64.8081 8.52637 64.8099 8.50646C64.8118 8.48656 64.8191 8.46757 64.8312 8.4516C64.8432 8.43562 64.8594 8.4233 64.878 8.416Z" fill="#455A64"/>
<path d="M68.286 2.41C70.0662 2.20789 71.866 2.25839 73.632 2.56C75.3375 2.80157 76.988 3.33754 78.51 4.144C81.102 5.59 83.004 8.266 82.62 11.344C82.4479 12.9271 81.6903 14.3887 80.496 15.442C80.4801 15.4563 80.4591 15.4637 80.4378 15.4626C80.4164 15.4615 80.3963 15.4519 80.382 15.436C80.3677 15.4201 80.3603 15.3991 80.3614 15.3778C80.3625 15.3564 80.3721 15.3363 80.388 15.322C81.4075 14.3289 82.0786 13.0329 82.3014 11.6273C82.5241 10.2216 82.2865 8.78159 81.624 7.522C80.076 4.738 76.956 3.436 73.968 2.866C72.093 2.53628 70.1886 2.40356 68.286 2.47V2.41Z" fill="#455A64"/>
<path d="M66.6 24.832C65.8755 24.6297 65.2223 24.2283 64.7146 23.6733C64.2069 23.1182 63.8652 22.4319 63.7281 21.6923C63.5911 20.9527 63.6644 20.1895 63.9395 19.4894C64.2147 18.7894 64.6808 18.1806 65.2847 17.7322C65.8887 17.2839 66.6063 17.014 67.356 16.9532C68.1058 16.8924 68.8575 17.0432 69.5258 17.3884C70.1941 17.7336 70.7521 18.2594 71.1365 18.906C71.5208 19.5525 71.7161 20.294 71.7 21.046C71.6883 21.574 71.5727 22.0944 71.3598 22.5777C71.1469 23.061 70.8409 23.4976 70.4592 23.8625C70.0775 24.2275 69.6277 24.5137 69.1354 24.7047C68.643 24.8958 68.1179 24.988 67.59 24.976C67.2551 24.971 66.9223 24.9226 66.6 24.832ZM68.61 17.596C68.3307 17.5168 68.0422 17.4744 67.752 17.47C66.8652 17.4513 66.0047 17.7713 65.3456 18.3648C64.6865 18.9583 64.2785 19.7808 64.2045 20.6646C64.1306 21.5485 64.3963 22.4273 64.9477 23.1221C65.499 23.8169 66.2944 24.2754 67.1719 24.4042C68.0494 24.5331 68.9431 24.3226 69.6709 23.8157C70.3987 23.3087 70.9058 22.5435 71.0891 21.6757C71.2724 20.8079 71.1181 19.9028 70.6575 19.1449C70.1969 18.3869 69.4647 17.833 68.61 17.596Z" fill="#37474F"/>
<path d="M75.732 26.2C74.25 25.786 73.332 23.89 73.65 21.82C73.7861 20.8247 74.231 19.8971 74.922 19.168C75.1997 18.8386 75.5575 18.5863 75.961 18.4354C76.3645 18.2845 76.8 18.2401 77.2257 18.3064C77.6513 18.3727 78.0527 18.5476 78.3912 18.8141C78.7296 19.0806 78.9937 19.4298 79.158 19.828C79.5949 20.7315 79.7376 21.7492 79.566 22.738C79.224 24.934 77.622 26.506 75.966 26.254C75.8869 26.2412 75.8087 26.2232 75.732 26.2ZM77.346 18.88L77.142 18.832C76.8003 18.7959 76.455 18.8419 76.1346 18.9661C75.8143 19.0903 75.5281 19.2891 75.3 19.546C74.6935 20.1963 74.3018 21.0174 74.178 21.898C73.884 23.8 74.73 25.498 76.074 25.72C77.418 25.942 78.738 24.556 79.038 22.654C79.1898 21.7781 79.0661 20.8767 78.684 20.074C78.5553 19.7942 78.37 19.5441 78.1396 19.3396C77.9093 19.1351 77.6391 18.9807 77.346 18.886V18.88Z" fill="#37474F"/>
<path d="M71.496 21.484L71.22 21.022C71.898 20.608 73.398 20.146 74.22 21.334L73.776 21.64C73.038 20.572 71.556 21.448 71.496 21.484Z" fill="#37474F"/>
<path d="M53.6219 19.75L53.1899 19.432C53.3339 19.228 54.6719 17.452 55.8839 17.446C57.0959 17.44 64.0439 19.246 64.3439 19.294L64.2119 19.816C62.1959 19.306 56.7659 17.98 55.8899 17.986C55.0139 17.992 53.9999 19.258 53.6219 19.75Z" fill="#37474F"/>
<path d="M59.6941 19.528C59.6941 19.528 57.9481 14.806 55.8781 15.328C53.8081 15.85 54.3901 22.186 56.3101 23.536C56.5443 23.7254 56.8144 23.8655 57.1041 23.9478C57.3939 24.03 57.6973 24.0528 57.9961 24.0146C58.2949 23.9765 58.5829 23.8783 58.8428 23.7259C59.1026 23.5736 59.3289 23.3702 59.508 23.128L59.6941 19.528Z" fill="#EB9481"/>
<path d="M56.088 17.14V17.194C57.42 18.19 57.84 19.774 58.014 21.352C57.9715 21.1772 57.8902 21.0142 57.7762 20.875C57.6622 20.7359 57.5183 20.6242 57.3553 20.5481C57.1922 20.4721 57.0142 20.4336 56.8343 20.4357C56.6544 20.4378 56.4773 20.4802 56.316 20.56C56.268 20.56 56.316 20.65 56.316 20.65C56.6001 20.6345 56.8819 20.7076 57.1226 20.8592C57.3634 21.0107 57.5511 21.2332 57.66 21.496C57.8407 21.936 57.9715 22.3949 58.05 22.864C58.086 23.02 58.344 23.008 58.332 22.864V22.828C58.86 20.914 58.08 17.866 56.088 17.14Z" fill="#263238"/>
</svg>
